<svg width="68" height="27" viewBox="0 0 68 27" fill="none" xmlns="http://www.w3.org/2000/svg">
<ellipse cx="57.7917" cy="17.5" rx="9.79167" ry="9.5" fill="#1B2034"/>
<path d="M49.8606 15.6547C50.2136 14.4475 51.3206 13.6178 52.5784 13.6178H65.0813C64.3967 14.8734 63.0809 15.6547 61.6509 15.6547H49.8606Z" fill="white"/>
<path d="M55.8884 18.4113C55.8884 17.2863 56.7998 16.3744 57.9248 16.3744C58.3073 16.3744 58.7309 16.3744 59.1841 16.3744C61.0956 16.3744 63.2215 16.3744 63.2215 16.3744C62.7762 17.5973 61.6136 18.4113 60.3121 18.4113H59.1841C57.8971 18.4113 57.1755 18.4113 55.8884 18.4113Z" fill="white"/>
<path d="M55.4873 18.3079C55.4562 17.24 56.3276 16.3744 57.3959 16.3744H59.6079C57.6625 16.6016 57.4356 18.1803 57.7656 20.5149C57.9381 21.735 57.2695 22.932 56.1007 23.3221L55.835 23.436C55.8198 22.499 55.5673 21.0582 55.4873 18.3079Z" fill="white"/>
<path d="M23.2446 26.5875L18.1016 8.24997H23.676L26.7286 21.6L25.0696 21.6375L28.6863 8.24997H33.8294L37.4461 21.6375L35.7871 21.6L38.8729 8.24997H44.4474L39.3043 26.5875H34.0948L30.644 13.9125H31.9381L28.3877 26.5875H23.2446Z" fill="#65D53F"/>
<path d="M7.77175 27V0.190409H14.1826V27H7.77175ZM0 5.8646V0L68 0.190409V5.8646H0Z" fill="#1B2034"/>
</svg>
