<svg width="22" height="22" viewBox="0 0 22 22" fill="none" xmlns="http://www.w3.org/2000/svg">
<path fill-rule="evenodd" clip-rule="evenodd" d="M3.39603 11.7209C3.02745 11.674 2.74199 11.3546 2.74199 10.9679C2.74199 10.549 3.07701 10.209 3.48979 10.209H16.6351L11.8861 5.40952L11.8189 5.33201C11.595 5.03521 11.6172 4.6086 11.8841 4.33589C12.1752 4.03941 12.6489 4.03839 12.941 4.33387L18.9733 10.4306L19.0398 10.5069C19.141 10.6404 19.1936 10.8035 19.1936 10.9679C19.1936 11.066 19.1747 11.1642 19.1368 11.2573C19.0211 11.5416 18.7489 11.7268 18.4458 11.7268H3.48979L3.39603 11.7209ZM11.884 17.5996C11.5929 17.3021 11.5929 16.8214 11.886 16.5259L15.2132 13.1634L15.29 13.0955C15.5839 12.8691 16.0032 12.8927 16.2701 13.1654C16.4157 13.3142 16.4885 13.5074 16.4885 13.7007C16.4885 13.896 16.4157 14.0903 16.2681 14.2391L12.9419 17.6016L12.8651 17.6693C12.5711 17.8948 12.1509 17.8714 11.884 17.5996Z" fill="#65D53F"/>
</svg>
