<svg width="42" height="40" viewBox="0 0 42 40" fill="none" xmlns="http://www.w3.org/2000/svg">
<rect width="42" height="39.9" rx="11" fill="#0D0A1E"/>
<path d="M4.2 14.7774C4.94128 12.2423 7.26599 10.5 9.90728 10.5H36.1635V10.5C34.7259 13.1367 31.9627 14.7774 28.9596 14.7774H4.2V14.7774Z" fill="white"/>
<path d="M16.8585 20.5663C16.8585 18.2039 18.7725 16.2888 21.1348 16.2888C21.9381 16.2888 22.8276 16.2888 23.7794 16.2888C27.7935 16.2888 32.2579 16.2888 32.2579 16.2888V16.2888C31.3227 18.857 28.8813 20.5663 26.1481 20.5663H23.7794C21.0766 20.5663 19.5613 20.5663 16.8585 20.5663V20.5663Z" fill="white"/>
<path d="M16.016 20.3492C15.9507 18.1067 17.7807 16.2888 20.0241 16.2888V16.2888H24.6694C20.584 16.7659 20.1076 20.0812 20.8006 24.9839C21.1628 27.5461 19.7587 30.0598 17.3042 30.8791V30.8791L16.7463 31.1183C16.7143 29.1504 16.184 26.1248 16.016 20.3492Z" fill="white"/>
</svg>
