<svg width="51" height="52" viewBox="0 0 51 52" fill="none" xmlns="http://www.w3.org/2000/svg">
<path fill-rule="evenodd" clip-rule="evenodd" d="M35.6123 5.12477C38.6303 4.93615 41.6063 5.98404 43.8488 8.03789C45.9026 10.2804 46.9505 13.2564 46.7829 16.2952V35.8697C46.9715 38.9086 45.9026 41.8846 43.8697 44.127C41.6272 46.1809 38.6303 47.2288 35.6123 47.0402H16.0377C12.9988 47.2288 10.0228 46.1809 7.78029 44.127C5.72641 41.8846 4.67852 38.9086 4.86714 35.8697V16.2952C4.67852 13.2564 5.72641 10.2804 7.78029 8.03789C10.0228 5.98404 12.9988 4.93615 16.0377 5.12477H35.6123ZM23.6873 36.247L37.792 22.1005C39.0704 20.8011 39.0704 18.7054 37.792 17.4269L35.0674 14.7024C33.768 13.4031 31.6723 13.4031 30.3729 14.7024L28.9687 16.1276C28.7591 16.3371 28.7591 16.6934 28.9687 16.903C28.9687 16.903 32.301 20.2143 32.3639 20.2981C32.5944 20.5496 32.7411 20.885 32.7411 21.2622C32.7411 22.0167 32.1333 22.6454 31.3579 22.6454C31.0016 22.6454 30.6663 22.4987 30.4357 22.2682L26.9358 18.7892C26.7681 18.6215 26.4747 18.6215 26.307 18.7892L16.3101 28.786C15.6185 29.4776 15.2203 30.3998 15.1994 31.3848L15.0736 36.3517C15.0736 36.6242 15.1575 36.8757 15.3461 37.0643C15.5347 37.2529 15.7862 37.3577 16.0586 37.3577H20.9837C21.9897 37.3577 22.9538 36.9595 23.6873 36.247Z" fill="#65D53F"/>
</svg>
