<svg width="154" height="154" viewBox="0 0 154 154" fill="none" xmlns="http://www.w3.org/2000/svg">
<path d="M128.818 34.6502C128.085 34.2321 127.831 34.661 128.399 34.1983C130.49 32.4988 128.299 31.2827 126.404 32.3922C126.468 32.1883 126.463 31.9691 126.391 31.7681C126.319 31.567 126.183 31.395 126.004 31.2781C125.716 31.1368 125.398 31.0666 125.077 31.0735C124.756 31.0803 124.441 31.1638 124.159 31.3172C122.563 31.9235 121.234 33.078 120.411 34.5743C122.668 33.5852 125.475 36.065 124.256 38.2356C125.516 37.5933 126.871 37.1561 128.269 36.9405C128.54 36.9184 128.799 36.8189 129.015 36.6539C129.231 36.4889 129.395 36.2654 129.488 36.0098C129.527 35.742 129.484 35.4687 129.364 35.2259C129.245 34.9831 129.054 34.7824 128.818 34.6502Z" fill="black"/>
<path d="M88.1513 63.5494C88.1332 63.6155 88.1421 63.6862 88.176 63.7457C88.21 63.8053 88.2662 63.8489 88.3323 63.8671C88.3983 63.884 88.4683 63.8746 88.5275 63.841C88.5868 63.8074 88.6307 63.7521 88.65 63.6868L90.0157 60.4297L89.5454 60.2249L88.1513 63.5494Z" fill="black"/>
<path d="M102.15 69.2883C102.004 69.586 102.449 69.8484 102.596 69.5491L104.064 66.5568L103.592 66.3504L102.15 69.2883Z" fill="black"/>
<path d="M122.666 34.5903C122.269 34.393 121.828 34.3012 121.385 34.3236C120.943 34.3461 120.513 34.4821 120.138 34.7185C119.764 34.955 119.456 35.284 119.245 35.6738C119.034 36.0636 118.927 36.5011 118.934 36.9443C119.164 38.8011 121.51 39.9136 123.017 39.3228C123.396 39.173 123.732 38.9307 123.993 38.6181C124.254 38.3054 124.433 37.9323 124.513 37.5328C124.579 36.9063 124.433 36.2757 124.098 35.7422C123.763 35.2086 123.259 34.8029 122.666 34.5903Z" fill="#FFBAA5"/>
<path d="M115.65 66.9822C114.715 65.5827 114.152 64.5361 113.709 63.95L112.392 66.9714C113.624 66.9822 114.092 66.9822 115.65 66.9822Z" fill="#FFBCBC" fill-opacity="0.65"/>
<path d="M136.931 50.9354C135.562 47.8073 132.604 45.3889 129.347 44.1252C127.87 43.5329 126.279 43.2792 124.69 43.3825C122.794 43.4508 120.916 43.7692 119.103 44.3293C119.575 46.4891 119.571 48.726 119.09 50.884C119.202 51.0326 119.275 51.2066 119.303 51.3904C119.343 51.9019 119.329 52.4163 119.262 52.9249C119.16 53.7284 119.242 54.5444 119.501 55.3119C120.106 56.6579 120.84 57.9426 121.691 59.1482C122.258 59.9867 122.955 60.73 123.755 61.3503C124.855 62.1858 125.845 62.1122 126.517 60.9244C127.337 59.4797 127.123 59.0792 127.736 57.082C128.128 56.0889 128.837 55.2527 129.752 54.7032C130.667 54.1536 131.738 53.9214 132.799 54.0423C133.86 54.1633 134.851 54.6308 135.619 55.3723C136.387 56.1139 136.889 57.088 137.047 58.1439C137.124 58.8302 137.106 59.524 136.994 60.2055C136.796 62.5425 136.22 64.8319 135.29 66.985H138.78C138.848 66.9864 138.913 67.014 138.961 67.062C139.01 67.1101 139.037 67.1748 139.039 67.2428C138.705 62.2871 138.923 55.483 136.931 50.9354ZM129.327 46.4354C127.967 46.8374 126.618 47.2744 125.281 47.7459C124.967 47.8571 124.832 47.3577 125.144 47.2479C126.479 46.7768 127.818 46.2919 129.19 45.9367C129.256 45.9185 129.326 45.9273 129.386 45.9612C129.446 45.995 129.489 46.0512 129.508 46.1174C129.526 46.1835 129.517 46.2542 129.483 46.3138C129.449 46.3735 129.393 46.4172 129.327 46.4354Z" fill="#FFBCBC" fill-opacity="0.65"/>
<path d="M101.995 40.5636C101.918 40.5542 101.84 40.5651 101.769 40.5951C101.698 40.6251 101.636 40.6732 101.589 40.7347C101.239 41.0968 101.205 42.5907 102.126 43.447C102.262 42.8088 102.361 42.1635 102.425 41.5142C102.445 41.1805 102.333 40.6211 101.995 40.5636Z" fill="#FFDE1B"/>
<path d="M106.18 42.075C106.208 41.9784 106.22 41.8817 106.153 41.8303C106.051 41.7686 105.935 41.7367 105.816 41.7382C105.36 41.7635 105.238 42.7993 105.254 43.2605C105.666 42.958 105.986 42.5478 106.18 42.075Z" fill="#FFDE1B"/>
<path d="M111.741 45.9522C111.768 45.8963 111.781 45.8346 111.779 45.7724C111.778 45.7103 111.761 45.6495 111.73 45.5954C111.623 45.4089 111.401 45.59 111.27 45.6967C110.716 46.2052 110.193 46.745 109.701 47.3133C110.131 47.2221 110.542 47.0531 110.911 46.8146C111.271 46.6212 111.562 46.3195 111.741 45.9522Z" fill="#FFDE1B"/>
<path d="M109.053 44.1644C109.119 44.0295 109.154 43.8812 109.155 43.7309C109.166 43.6733 109.114 43.6211 109.064 43.5904C109.022 43.5739 108.977 43.5663 108.931 43.5683C108.886 43.5703 108.842 43.5817 108.801 43.602C108.059 43.8713 107.796 44.9124 107.826 45.6789C108.337 45.2662 108.755 44.75 109.053 44.1644Z" fill="#FFDE1B"/>
<path d="M110.418 33.7703C106.883 32.2206 102.889 32.0824 99.2554 33.3842C95.6219 34.686 92.6244 37.3289 90.8778 40.7708C90.6208 41.2779 90.531 41.5066 89.5221 43.8207C89.7339 43.6685 89.9722 43.5571 90.2249 43.4923C90.4509 43.4366 90.6885 43.4501 90.9068 43.531C91.125 43.612 91.3139 43.7567 91.449 43.9463C91.584 44.1359 91.659 44.3618 91.6641 44.5945C91.6693 44.8273 91.6044 45.0562 91.4778 45.2516C91.0827 46.0097 90.5962 46.0565 89.852 46.7792C89.2543 47.4851 90.4405 47.9608 90.9262 48.1833C91.5338 48.4611 92.3771 49.0872 92.0003 49.8629C91.8862 50.0934 91.7013 50.2814 91.4727 50.3995C91.2441 50.5175 90.9838 50.5593 90.7297 50.5189C89.519 50.3355 88.3781 48.9982 88.1717 48.9675C88.1994 49.0331 88.2336 49.0958 88.2737 49.1547C89.0134 50.4951 89.885 51.1081 90.0384 51.913C90.1443 52.4631 89.865 53.1752 89.2013 53.1115C88.5062 53.0447 87.9553 52.4547 87.0722 51.8509C87.0062 51.8056 86.8343 51.6414 86.7561 51.692C86.7469 51.6974 86.7469 51.692 86.7829 51.7396C86.819 51.7872 87.1228 52.2291 87.3146 52.5391C87.6077 53.0125 88.0819 53.7153 87.9077 54.3038C87.8537 54.4775 87.7608 54.6365 87.6362 54.7689C87.5115 54.9014 87.3584 55.0037 87.1883 55.0681C87.0182 55.1325 86.8357 55.1573 86.6546 55.1407C86.4735 55.124 86.2985 55.0664 86.143 54.9721C85.7552 54.6984 85.3928 54.3902 85.0604 54.0514C84.5932 55.1255 83.6387 57.3122 83.6279 57.3368C83.5944 57.3962 83.5853 57.4664 83.6026 57.5325C83.6199 57.5985 83.6623 57.6552 83.7208 57.6905L110.948 69.5609C111.007 69.5944 111.078 69.6035 111.144 69.5862C111.21 69.5689 111.266 69.5265 111.302 69.468L113.706 63.9521C113.49 63.6015 113.191 63.3088 112.836 63.0993C112.481 62.8897 112.081 62.7695 111.669 62.7491C111.004 62.7383 110.178 62.8112 109.703 62.235C109.541 62.0409 109.45 61.7969 109.447 61.544C109.444 61.2912 109.528 61.045 109.686 60.847C110.403 60.1879 111.271 60.1657 113.388 59.8051C113.172 59.7461 112.95 59.7103 112.726 59.6984C112.016 59.6663 111.308 59.5895 110.606 59.4683C110.174 59.4376 109.757 59.2933 109.398 59.0501C109.245 58.9124 109.131 58.7364 109.068 58.5401C109.005 58.3438 108.995 58.1343 109.04 57.9331C109.085 57.7319 109.183 57.5462 109.323 57.3952C109.463 57.2442 109.641 57.1332 109.838 57.0736C110.979 56.6133 111.674 56.9831 113.353 56.9347C113.404 56.9347 113.548 56.9524 113.513 56.858C113.485 56.7813 113.331 56.7629 113.26 56.7376C112.903 56.6079 112.547 56.4736 112.192 56.3386C111.684 56.1452 111.051 56.0163 110.815 55.467C110.724 55.2578 110.699 55.0258 110.744 54.802C110.789 54.5783 110.901 54.3737 111.065 54.2156C111.499 53.8043 112.25 53.9018 112.799 53.9179C114.001 53.9434 115.183 54.2328 116.26 54.7657C116.692 52.0872 116.751 51.3851 117.345 50.7161C117.512 50.579 117.712 50.4886 117.925 50.4542C118.138 50.4199 118.356 50.4427 118.558 50.5204C118.587 50.5289 118.608 50.5457 118.634 50.5565C118.812 50.624 118.968 50.7395 119.085 50.8902C119.851 47.4742 119.405 43.8982 117.824 40.7748C116.243 37.6514 113.624 35.1751 110.418 33.7703ZM111.897 46.6565C111.194 47.4037 110.223 47.8427 109.198 47.878C104.847 52.6454 101.232 58.0348 98.4707 63.8685C98.3272 64.1693 97.8822 63.9069 98.0241 63.6084C100.754 57.8439 104.315 52.5107 108.592 47.779C108.327 47.6657 108.09 47.4971 107.897 47.2846C107.703 47.072 107.557 46.8204 107.468 46.5468L107.457 46.5537C107.275 46.679 107.063 46.7532 106.843 46.7683C106.623 46.7834 106.403 46.739 106.206 46.6396C105.448 46.0271 104.961 45.1402 104.852 44.1713C104.497 44.3795 104.098 44.5003 103.688 44.5237C103.277 44.547 102.867 44.4722 102.491 44.3056C101.28 50.7758 98.7628 56.9314 95.0939 62.3969C94.909 62.6723 94.4617 62.413 94.6474 62.136C98.3202 56.6697 100.829 50.5061 102.018 44.0286C100.819 43.1148 100.537 41.3232 101.146 40.4685C101.261 40.3045 101.423 40.1797 101.61 40.1111C101.798 40.0425 102.003 40.0333 102.196 40.0848C102.855 40.2698 102.987 41.1475 102.928 41.726C102.856 42.4184 102.745 43.1062 102.595 43.7861C102.938 43.9651 103.324 44.0449 103.709 44.0166C104.095 43.9883 104.465 43.8529 104.778 43.6258C104.725 43.1749 104.747 42.7186 104.841 42.2746C104.871 42.0818 104.941 41.8975 105.047 41.7335C105.153 41.5696 105.292 41.4298 105.455 41.3232C105.642 41.2322 105.854 41.2045 106.058 41.2444C106.263 41.2842 106.448 41.3895 106.588 41.5442C107.105 42.2163 105.998 43.3856 105.318 43.8859C105.413 44.6832 105.748 45.4328 106.278 46.0358C106.371 46.1348 106.484 46.2115 106.611 46.2598C106.872 46.2643 107.128 46.1835 107.339 46.0296C107.116 44.3416 108.037 43.0687 108.955 43.0511C109.569 43.0396 109.774 43.6511 109.611 44.1391C109.257 44.9935 108.67 45.7307 107.916 46.2659C107.972 46.5276 108.101 46.7679 108.289 46.9588C108.477 47.1497 108.715 47.2832 108.975 47.3439C109.538 46.7202 110.099 46.0795 110.711 45.5025C110.937 45.244 111.241 45.0662 111.577 44.9961C112.34 44.9531 112.537 46.0626 111.897 46.6565Z" fill="#FFDE1B"/>
<path d="M62.8989 50.8202C62.6125 49.3923 62.0238 48.0422 61.1723 46.8606C60.3208 45.6791 59.2263 44.6935 57.9623 43.9701C54.2986 41.8386 49.4679 41.6069 45.2464 41.9883C42.1928 42.2001 39.2926 43.406 36.9891 45.4218C34.7449 47.5348 31.1042 46.5466 30.6415 44.29C30.5447 43.7937 30.5258 43.2853 30.5855 42.7831C30.584 42.851 30.5563 42.9157 30.5083 42.9637C30.4603 43.0117 30.3956 43.0394 30.3277 43.0409H21.162C21.0937 43.0403 21.0284 43.013 20.9801 42.9648C20.9317 42.9166 20.9042 42.8514 20.9034 42.7831C20.4893 45.7447 21.1291 48.7575 22.7111 51.2952C25.1993 54.9972 29.1968 56.9844 33.6162 57.6405C33.5725 59.8402 33.406 69.4816 33.3661 72.1019C34.8222 72.7938 36.1368 73.7504 37.2431 74.9231C40.1763 72.9205 40.7418 70.0011 40.7395 66.4341C40.7395 62.2356 41.0763 66.0182 40.5768 52.222C40.535 51.859 40.535 51.4924 40.5768 51.1294C40.6392 50.8068 40.8186 50.5186 41.0806 50.3202C41.3426 50.1219 41.6687 50.0273 41.9961 50.0549C42.3236 50.0824 42.6293 50.23 42.8546 50.4693C43.0798 50.7086 43.2086 51.0227 43.2162 51.3512C43.4418 52.5543 43.6973 54.9052 43.7917 56.0844C44.4242 55.5593 45.2349 55.2984 46.055 55.3563C46.875 55.4142 47.6411 55.7864 48.1935 56.3952C48.9009 55.1284 51.0577 55.2965 51.7229 57.7809C51.918 58.3277 52.0556 58.8934 52.1334 59.4688C52.7924 65.6869 51.8785 71.9708 49.4756 77.7435C48.0368 81.2597 45.83 84.4097 43.0167 86.963C43.4639 88.8654 43.7944 90.7932 44.0065 92.7359C44.0102 92.7772 43.9999 92.8185 43.9774 92.8533C44.0541 93.0651 44.3311 93.8362 44.3901 94.0088L53.6994 94.0855C53.6994 82.8574 53.6595 83.4305 53.7615 83.3131C53.8191 83.2364 53.5989 83.3899 63.7413 77.2218C63.815 69.9497 63.9899 55.9333 62.8989 50.8202Z" fill="#EA4147"/>
<path d="M50.8697 28.1968C50.8921 27.7859 50.8036 27.3764 50.6134 27.0114C50.595 26.9985 50.5808 26.9803 50.5728 26.9592C50.1175 26.5528 49.5325 26.3216 48.9224 26.307C48.3293 26.1879 47.7159 26.2175 47.137 26.393C46.8889 26.5145 46.6823 26.7067 46.5432 26.9453C46.404 27.184 46.3386 27.4584 46.3551 27.7342C46.2196 29.2602 46.216 30.795 46.3444 32.3216C46.4046 31.9554 46.5531 31.6092 46.777 31.3132C47.0009 31.0171 47.2935 30.78 47.6295 30.6223C47.9656 30.4645 48.335 30.391 48.7058 30.408C49.0766 30.4249 49.4377 30.5319 49.7579 30.7196C50.2923 31.1009 50.6607 31.6722 50.7876 32.3163C50.9149 30.9469 50.9423 29.5701 50.8697 28.1968Z" fill="black"/>
<path d="M30.9607 63.9611C29.3072 62.01 26.2098 62.4266 24.4589 64.1545C23.5283 65.0953 22.8026 66.2186 22.3274 67.4537C21.6077 69.2568 20.9886 71.4205 20.7645 71.8379C19.4312 73.9092 17.4882 75.516 15.2034 76.4369C13.8591 76.9663 12.4297 77.234 11.2412 78.1064C10.1314 78.9198 9.32844 80.0839 8.96245 81.4103C8.77192 82.0695 8.79072 82.7717 9.01625 83.4198C9.24177 84.0679 9.66291 84.6301 10.2215 85.0287C9.00479 85.4591 7.9887 86.3217 7.36654 87.4525C6.38291 89.5241 7.60209 91.4783 9.35069 91.5757C8.76549 92.1924 8.33088 92.9361 8.08086 93.7486C7.94279 94.1992 7.92738 94.6785 8.03622 95.1371C8.14505 95.5956 8.3742 96.0168 8.70005 96.3573C9.03641 96.6315 9.43085 96.8253 9.85337 96.9241C10.2759 97.0229 10.7154 97.024 11.1384 96.9274C11.1914 96.919 11.2443 96.9067 11.2972 96.896C11.496 95.8602 13.21 87.5584 13.5223 86.2954C14.7177 81.4693 16.9374 76.3455 20.974 73.4123C22.4721 72.324 24.1926 71.5807 26.012 71.2358C27.8313 70.8909 29.7045 70.9529 31.497 71.4174C31.6075 71.4473 31.9037 71.5294 32.0118 71.5709C32.0725 68.2816 32.4407 65.7074 30.9607 63.9611ZM30.3239 67.8657C30.1715 68.4937 29.7979 69.0456 29.2716 69.4204C28.7452 69.7951 28.1013 69.9675 27.4581 69.9059C26.7802 69.8455 26.1482 69.5374 25.6831 69.0404C25.218 68.5435 24.9523 67.8925 24.9369 67.212C24.8984 66.6713 25.0499 66.1341 25.3652 65.6931C25.6805 65.2521 26.1399 64.9351 26.664 64.7967C27.4557 64.5871 28.2955 64.6559 29.0425 64.9916C29.5441 65.2613 29.942 65.6898 30.1739 66.2099C30.4058 66.73 30.4585 67.3124 30.3239 67.8657Z" fill="black"/>
<path d="M29.0454 64.9918C28.4634 64.6982 27.8038 64.5951 27.16 64.697C26.5161 64.7989 25.9206 65.1006 25.4577 65.5595C25.176 65.955 25.0037 66.4177 24.9582 66.9011C24.9127 67.3845 24.9956 67.8713 25.1986 68.3123C25.4015 68.7533 25.7173 69.133 26.1141 69.4128C26.5108 69.6927 26.9744 69.8628 27.4579 69.9061C28.1011 69.9677 28.745 69.7953 29.2714 69.4206C29.7977 69.0458 30.1713 68.4939 30.3237 67.8659C30.4586 67.3129 30.4063 66.7308 30.175 66.2107C29.9437 65.6906 29.5464 65.2619 29.0454 64.9918Z" fill="#FFBCBC" fill-opacity="0.65"/>
<path d="M52.1363 59.472C52.2499 60.5884 51.7036 61.7807 50.5657 61.8505C50.1804 61.8277 49.8084 61.7011 49.4891 61.4842C49.1699 61.2673 48.9151 60.9681 48.7519 60.6183C48.6565 60.9033 48.4833 61.156 48.2519 61.3477C48.0204 61.5395 47.74 61.6627 47.4422 61.7034C47.1444 61.7441 46.8411 61.7007 46.5667 61.5781C46.2923 61.4555 46.0576 61.2586 45.8893 61.0096C45.8102 61.6297 45.8924 62.2597 46.1279 62.8388C46.2737 63.1365 45.8279 63.3981 45.6813 63.0996C44.9839 61.681 45.7519 60.184 45.1327 59.027C45.0228 58.8501 44.867 58.7064 44.6818 58.6112C44.4966 58.5159 44.2891 58.4726 44.0813 58.486C43.8735 58.4994 43.6732 58.5689 43.5018 58.6872C43.3304 58.8054 43.1942 58.9679 43.1079 59.1574C42.7022 60.1098 42.4934 61.1345 42.4941 62.1697C42.4627 62.4981 41.9455 62.5004 41.977 62.1697C42.1097 60.7986 42.1496 59.6055 42.8655 58.5897C43.0033 58.4129 43.1761 58.2666 43.373 58.1597C43.57 58.0529 43.7869 57.9878 44.0102 57.9687C44.2335 57.9495 44.4583 57.9766 44.6706 58.0484C44.8829 58.1201 45.0781 58.2349 45.244 58.3856C45.2079 58.2187 45.1536 58.0564 45.0821 57.9014C44.9425 57.6014 45.389 57.3398 45.5279 57.6405C45.7622 58.3545 45.9015 59.0961 45.9422 59.8464C45.9694 60.1462 46.0841 60.4313 46.2721 60.6664C46.4601 60.9015 46.713 61.0761 46.9995 61.1684C47.2611 61.2351 47.5383 61.1982 47.7733 61.0653C48.0083 60.9325 48.183 60.7141 48.2609 60.4556C48.4548 59.8182 48.4966 59.1441 48.3829 58.4876C48.328 57.9884 48.2168 57.4971 48.0514 57.0229C48.0376 56.9907 48.0305 56.956 48.0305 56.921C48.0304 56.886 48.0375 56.8513 48.0512 56.8191C48.065 56.7869 48.0851 56.7578 48.1104 56.7335C48.1357 56.7093 48.1656 56.6904 48.1984 56.6781C48.2312 56.6657 48.2661 56.6602 48.3011 56.6617C48.3361 56.6632 48.3704 56.6718 48.402 56.687C48.4336 56.7021 48.4618 56.7235 48.4849 56.7499C48.5079 56.7762 48.5254 56.807 48.5363 56.8403C48.8412 57.7367 48.9775 58.6818 48.9384 59.6278C48.9608 59.659 48.9758 59.6949 48.9821 59.7329C49.0323 60.1257 49.2059 60.4926 49.4777 60.7806C49.7496 61.0686 50.1058 61.2629 50.4951 61.3357C50.687 61.3321 50.874 61.275 51.0351 61.1707C51.1961 61.0664 51.3248 60.9192 51.4067 60.7457C51.5914 60.3482 51.6641 59.9078 51.6169 59.472C51.6031 59.139 52.1202 59.1413 52.134 59.472C52.0525 58.8973 51.915 58.332 51.7235 57.784C51.5744 57.2199 51.2969 56.6978 50.9125 56.2587C50.7474 56.0494 50.5345 55.8827 50.2916 55.7726C50.0488 55.6625 49.7831 55.6121 49.5169 55.6258C49.2506 55.6395 48.9915 55.7168 48.7612 55.8512C48.5309 55.9856 48.3362 56.1732 48.1934 56.3983C47.6409 55.7895 46.8749 55.4174 46.0548 55.3595C45.2348 55.3016 44.424 55.5624 43.7916 56.0876C43.6972 54.9122 43.4425 52.5582 43.2161 51.3544C43.2085 51.0258 43.0797 50.7117 42.8544 50.4724C42.6292 50.2331 42.3235 50.0855 41.996 50.058C41.6685 50.0305 41.3425 50.125 41.0805 50.3234C40.8185 50.5218 40.6391 50.81 40.5767 51.1326C40.5286 51.9213 40.5438 52.7126 40.622 53.4989C41.0517 65.1183 40.7355 63.0214 40.7386 66.4372C40.7386 70.0035 40.1762 72.9237 37.2422 74.9262C40.2829 78.0966 42.0253 82.6756 43.0174 86.9723C45.8307 84.419 48.0375 81.269 49.4762 77.7528C51.8864 71.98 52.8013 65.6924 52.1363 59.472Z" fill="#FFBCBC" fill-opacity="0.65"/>
<path d="M49.7561 30.7195C49.3968 30.5112 48.9877 30.404 48.5724 30.4092C48.157 30.4145 47.7508 30.5321 47.3969 30.7495C47.0429 30.9669 46.7544 31.276 46.5619 31.6441C46.3694 32.0122 46.2801 32.4255 46.3034 32.8403C46.3635 33.2575 46.5479 33.6469 46.8326 33.9577C47.1173 34.2685 47.489 34.4863 47.8994 34.5827C48.4563 34.7144 49.0416 34.6487 49.5554 34.3969C50.0693 34.145 50.4798 33.7225 50.7168 33.2016C50.8356 32.7394 50.8069 32.2516 50.6346 31.8065C50.4624 31.3614 50.1552 30.9813 49.7561 30.7195Z" fill="#FFBBD6"/>
<path d="M43.02 86.9663C41.4977 80.3019 38.1225 73.2008 31.4995 71.4185C29.7069 70.9541 27.8338 70.8922 26.0145 71.2371C24.1952 71.582 22.4747 72.3252 20.9765 73.4134C16.3223 76.7947 14.0926 83.0433 12.9969 88.6957C12.9523 88.8508 12.9227 89.0099 12.9087 89.1707C13.1125 88.25 13.554 87.3988 14.1894 86.7019C14.8247 86.0051 15.6316 85.4869 16.5296 85.1992C17.4276 84.9114 18.3854 84.8641 19.3074 85.0618C20.2294 85.2596 21.0834 85.6956 21.7844 86.3264C22.4098 86.899 22.8959 87.6069 23.2056 88.3962C23.5154 89.1855 23.6405 90.0351 23.5714 90.8801C23.5576 91.7165 23.6251 97.9075 23.6435 100.164C24.528 98.2256 25.5517 96.3537 26.7064 94.563C28.7696 91.306 31.7665 87.6952 35.5622 87.0323C36.4157 86.8638 37.2941 86.8659 38.1468 87.0386C38.9994 87.2112 39.8095 87.5509 40.5302 88.0382C41.927 89.0064 43.0071 90.3651 43.6353 91.9443C43.7573 92.2512 43.8701 92.5582 43.9844 92.8605C44.007 92.8257 44.0173 92.7843 44.0136 92.7431C43.8027 90.7987 43.4709 88.8694 43.02 86.9663Z" fill="#68E592"/>
<path d="M40.0955 32.5318C40.5651 32.5924 41.037 32.6377 41.5081 32.6807C41.9576 32.7492 42.4128 32.7726 42.8669 32.7505C44.3884 32.5786 44.5986 30.5385 42.2201 30.4249C41.3659 30.373 40.5217 30.2137 39.7073 29.9508C39.7572 29.7582 40.7047 29.7421 41.3186 29.805C41.7286 29.8482 42.1428 29.8267 42.5462 29.7413C42.7592 29.6661 42.9338 29.5098 43.0321 29.3065C43.1304 29.1032 43.1444 28.8692 43.071 28.6556C42.7019 27.5638 40.4239 27.3513 39.2293 27.2745C36.8761 27.0923 34.5097 27.3595 32.2564 28.0618C25.8213 30.1065 21.5868 36.118 20.9009 42.784C20.9017 42.8523 20.9292 42.9175 20.9775 42.9657C21.0259 43.0139 21.0912 43.0412 21.1594 43.0418H30.3283C30.3961 43.0403 30.4608 43.0126 30.5088 42.9646C30.5568 42.9166 30.5845 42.8519 30.5861 42.784C30.678 41.1997 31.3282 39.6992 32.4214 38.5487C32.8648 38.116 33.4188 37.8114 33.7871 38.304C34.1707 38.8111 35.0845 41.162 36.5147 40.2221C38.0393 39.2178 35.8242 37.0625 36.7449 36.0697C37.1508 35.7121 37.68 35.5266 38.2203 35.5526C40.2482 35.5219 41.1359 36.372 42.2477 36.3528C43.2536 36.3996 44.1022 35.3646 43.46 34.5536C43.1593 34.1793 42.7737 33.882 42.3352 33.6866C41.69 33.3917 41.0117 33.1753 40.315 33.0421C40.137 33.0083 39.6536 33.0221 39.6452 32.7574C39.6367 32.4927 39.9137 32.5065 40.0955 32.5318ZM35.3255 31.1822C35.518 30.916 35.9692 31.1753 35.7712 31.4431C35.6225 31.6433 35.515 31.871 35.4549 32.113C35.3947 32.355 35.3832 32.6065 35.4208 32.853C35.4585 33.0996 35.5447 33.3361 35.6744 33.5491C35.804 33.7622 35.9747 33.9473 36.1763 34.094C36.4464 34.2858 36.1894 34.73 35.9155 34.5398C35.6546 34.3592 35.4322 34.1287 35.2611 33.8616C35.09 33.5944 34.9736 33.2959 34.9187 32.9835C34.8638 32.671 34.8715 32.3508 34.9414 32.0413C35.0112 31.7318 35.1417 31.4393 35.3255 31.1807V31.1822ZM22.6464 39.3919C22.7009 39.0643 23.1988 39.204 23.1451 39.5293L22.8144 41.5318C22.76 41.8595 22.262 41.7198 22.3157 41.3945L22.6464 39.3919Z" fill="#FFBBD6"/>
<path d="M55.7244 24.6496C55.7415 24.6203 55.7527 24.5879 55.7573 24.5543C55.7619 24.5206 55.7599 24.4864 55.7512 24.4536C55.7426 24.4207 55.7276 24.3899 55.7071 24.3628C55.6865 24.3358 55.6609 24.3131 55.6316 24.2959C55.6022 24.2788 55.5698 24.2676 55.5362 24.263C55.5026 24.2584 55.4683 24.2605 55.4355 24.2691C55.4026 24.2777 55.3718 24.2927 55.3448 24.3133C55.3177 24.3338 55.295 24.3594 55.2779 24.3888C54.3077 25.985 53.3499 27.5886 52.4045 29.1995C52.3738 29.2584 52.367 29.3268 52.3854 29.3905C52.4037 29.4543 52.4459 29.5085 52.5032 29.5421C52.5605 29.5756 52.6285 29.5858 52.6931 29.5706C52.7576 29.5554 52.8139 29.5159 52.8502 29.4604L55.7244 24.6496Z" fill="black"/>
<path d="M54.3171 29.9708L57.2611 27.7503C57.5235 27.5523 57.2665 27.1035 57.001 27.3037L54.0563 29.5288C53.7946 29.7222 54.0517 30.171 54.3171 29.9708Z" fill="black"/>
<path d="M44.3934 94.012C44.1523 93.3168 43.8983 92.6262 43.6315 91.9404C43.0774 90.5504 42.1741 89.3269 41.009 88.388C38.2092 86.1836 34.6821 86.601 31.8126 88.7386C28.422 91.2645 25.2747 96.5586 23.6396 100.274C23.6396 100.729 23.6834 107.215 23.6842 107.388H53.7026V94.0865L44.3934 94.012ZM36.6885 99.5141C35.6899 101.969 34.771 104.456 33.9333 106.971C33.9151 107.037 33.8713 107.093 33.8117 107.127C33.752 107.161 33.6814 107.17 33.6152 107.152C33.5491 107.134 33.4929 107.09 33.459 107.03C33.4251 106.971 33.4163 106.9 33.4345 106.834C34.2719 104.319 35.1906 101.834 36.1906 99.3768C36.3149 99.0722 36.8143 99.2072 36.6885 99.5141ZM39.8343 90.5432L38.3182 90.01C38.0059 89.9003 38.1409 89.4016 38.4555 89.512L39.9724 90.0445C40.2855 90.1535 40.1504 90.653 39.8358 90.5432H39.8343ZM45.7514 102.291C45.5642 103.868 45.1721 105.413 44.5852 106.889C44.5674 106.955 44.524 107.012 44.4646 107.046C44.4052 107.08 44.3346 107.089 44.2683 107.072C44.2021 107.054 44.1456 107.01 44.1114 106.951C44.0771 106.892 44.0679 106.821 44.0857 106.755C45.5826 102.641 45.8888 99.3307 44.1624 94.6573C44.0458 94.3443 44.5507 94.2115 44.6604 94.52C45.6413 96.9855 46.016 99.6504 45.753 102.291H45.7514Z" fill="#197C4F"/>
<path d="M142.7 89.4313C139.868 87.0972 134.445 82.4768 132.126 79.6187C127.155 82.7093 122.576 85.6433 119.645 90.744C123.032 94.8147 127.361 97.9978 132.257 100.017C132.301 100.029 132.348 100.029 132.392 100.018C132.436 100.006 132.476 99.9828 132.509 99.9505C135.027 97.4829 141.803 90.6996 142.7 89.7965C142.748 89.7479 142.775 89.6823 142.775 89.6139C142.775 89.5455 142.748 89.4798 142.7 89.4313Z" fill="#4285F4"/>
<path d="M90.9287 48.1839C90.4415 47.9614 89.2553 47.4857 89.8545 46.7798C90.1279 46.5141 90.4279 46.2773 90.7499 46.0732C92.5783 44.7688 91.287 42.5921 89.5223 43.8213C89.1817 44.0583 88.864 44.3514 88.584 44.5801C87.1156 45.6369 85.7887 46.8774 84.6356 48.2714C84.086 48.9925 83.7691 49.864 83.727 50.7697C83.6849 51.6754 83.9197 52.5725 84.4001 53.3415C84.6546 53.671 84.9475 53.969 85.2724 54.2292C85.5403 54.5038 85.834 54.752 86.1494 54.9704C86.3049 55.0648 86.4798 55.1226 86.661 55.1393C86.8421 55.1561 87.0247 55.1312 87.1948 55.0668C87.365 55.0024 87.5182 54.9 87.6428 54.7675C87.7674 54.635 87.8602 54.4758 87.9141 54.3021C88.0906 53.7151 87.6141 53.0123 87.321 52.5374C87.1292 52.2266 86.8292 51.7893 86.7893 51.7379C86.7494 51.6865 86.7533 51.6957 86.7625 51.6903C86.8392 51.6397 87.0126 51.8039 87.0786 51.8492C87.9755 52.463 88.5134 53.043 89.2077 53.1098C89.8714 53.1735 90.1507 52.4614 90.0448 51.9113C89.8635 51.362 89.5582 50.8619 89.1525 50.4497C88.7882 49.982 88.462 49.4858 88.1773 48.9658C88.3845 48.9965 89.5323 50.3353 90.7354 50.5172C90.9894 50.5576 91.2498 50.5158 91.4784 50.3978C91.7069 50.2798 91.8918 50.0917 92.006 49.8612C92.3796 49.087 91.5356 48.4609 90.9287 48.1839ZM86.7249 46.8029C86.7613 46.808 86.796 46.8214 86.8265 46.842C86.8569 46.8626 86.8823 46.8899 86.9006 46.9218C87.1008 47.2663 87.3195 47.5993 87.5144 47.9445C87.545 48.0034 87.5519 48.0718 87.5335 48.1356C87.5151 48.1993 87.4729 48.2536 87.4156 48.2871C87.3583 48.3206 87.2904 48.3308 87.2258 48.3156C87.1612 48.3004 87.1049 48.261 87.0686 48.2054C86.8591 47.8671 86.6574 47.5233 86.4548 47.1827C86.4319 47.14 86.4214 47.0917 86.4244 47.0434C86.4275 46.995 86.444 46.9485 86.472 46.909C86.5001 46.8695 86.5387 46.8387 86.5833 46.8199C86.628 46.8012 86.677 46.7952 86.7249 46.8029ZM84.941 51.4924L84.3686 50.7013C84.173 50.432 84.621 50.1742 84.8144 50.4412L85.3868 51.2315C85.5824 51.5008 85.1343 51.7586 84.941 51.4916V51.4924Z" fill="#FFBAA5"/>
<path d="M36.1901 99.3767C35.1911 101.832 34.2725 104.318 33.4341 106.834C33.4159 106.9 33.4247 106.971 33.4586 107.03C33.4925 107.09 33.5486 107.134 33.6148 107.152C33.6809 107.17 33.7516 107.161 33.8112 107.127C33.8709 107.093 33.9146 107.037 33.9328 106.971C34.7699 104.459 35.6975 101.949 36.6881 99.514C36.8139 99.2071 36.3144 99.0721 36.1901 99.3767Z" fill="#2755A0"/>
<path d="M139.04 67.2382C139.038 67.1703 139.011 67.1056 138.962 67.0576C138.914 67.0096 138.85 66.982 138.782 66.9804H135.291C134.637 68.4928 133.678 69.8539 132.473 70.9785C131.269 72.1031 129.845 72.9669 128.292 73.516C125.186 74.4743 121.419 73.6618 118.026 70.0211C117.152 69.0737 116.356 68.0568 115.647 66.9804C115.647 66.9804 112.827 66.9743 112.389 66.9697L111.302 69.464C111.267 69.5225 111.21 69.5649 111.144 69.5822C111.078 69.5996 111.008 69.5905 110.948 69.5569C110.948 69.5569 110.494 69.3597 110.307 69.2768C110.622 71.1721 111.134 73.0294 111.834 74.8188C108.759 77.462 104.565 81.5439 102.94 85.2536C101.182 89.6945 100.171 94.3955 99.9473 99.1664C99.9479 99.2346 99.9752 99.3 100.023 99.3483C100.072 99.3966 100.137 99.4242 100.205 99.425H116.591C116.647 99.4246 116.702 99.4058 116.747 99.3715C116.792 99.3372 116.825 99.2891 116.84 99.2347C117.173 96.3287 118.082 93.5181 119.513 90.9672C120.945 88.4163 122.87 86.176 125.176 84.3774C127.379 82.6339 129.7 81.0445 132.122 79.6203C134.884 77.9715 137.231 75.9597 138.337 72.9566C138.677 72.0153 138.902 71.0364 139.008 70.041C139.07 69.108 139.081 68.1724 139.04 67.2382ZM109.405 80.7421C108.899 81.2942 108.449 81.8945 108.061 82.5344C108.025 82.5909 107.969 82.6314 107.904 82.6472C107.839 82.6631 107.77 82.6531 107.713 82.6194C107.655 82.5858 107.612 82.531 107.594 82.4666C107.576 82.4023 107.583 82.3333 107.615 82.2743C108.016 81.5895 108.494 80.9529 109.039 80.3769C109.266 80.1329 109.63 80.4988 109.405 80.7428V80.7421ZM115.785 72.2914C115.695 72.4917 114.422 73.1354 112.367 75.0275C112.137 75.2408 111.799 74.9239 111.975 74.6983C113.055 73.6951 114.212 72.7775 115.434 71.9538C115.665 71.7981 115.878 72.0843 115.785 72.2922V72.2914Z" fill="#4285F4"/>
<path d="M26.5709 110.039C25.9847 110.039 25.3985 110.026 24.8131 110.012C24.4532 110.003 24.0842 109.979 23.7213 109.992C23.6998 109.124 23.554 91.7132 23.5678 90.8769C23.601 90.0058 23.4672 89.1365 23.1734 88.3158C22.9129 87.6555 22.5238 87.0535 22.0287 86.5448C21.5337 86.0361 20.9425 85.6307 20.2895 85.3524C19.6365 85.074 18.9347 84.9281 18.2249 84.9231C17.5151 84.9181 16.8113 85.0542 16.1545 85.3234C15.3368 85.6602 14.6128 86.1899 14.0444 86.8673C13.4761 87.5447 13.0801 88.3497 12.8906 89.2135C11.4565 95.5541 9.92816 104.38 8.94836 110.116C7.7602 109.896 6.53587 109.975 5.38595 110.346C3.39567 111.044 3.49771 112.934 4.71076 113.344C5.33071 113.512 5.37905 113.464 8.35833 113.525C7.81434 116.039 7.17675 116.725 7.677 117.548C7.84832 117.826 8.11615 118.032 8.42934 118.125C8.74254 118.218 9.07917 118.193 9.37496 118.054C9.73237 117.841 10.0598 117.581 10.3486 117.282C12.487 115.386 14.5601 112.822 15.5046 113.759C16.0578 114.483 16.3847 116.23 17.0499 117.506C17.1573 117.758 17.352 117.963 17.5984 118.083C17.8447 118.204 18.1261 118.231 18.3911 118.161C18.7031 118.058 18.9847 117.879 19.2108 117.64C19.4368 117.402 19.6001 117.111 19.6862 116.794C19.9678 115.759 20.0445 114.212 20.4627 113.768C21.0024 113.478 21.6222 113.373 22.2274 113.468C23.0538 113.493 26.1006 113.603 26.7957 113.604C27.1957 113.608 27.5852 113.476 27.901 113.23C28.2167 112.984 28.4401 112.639 28.5351 112.251C28.5712 111.973 28.5473 111.69 28.4648 111.422C28.3823 111.154 28.2433 110.907 28.0571 110.697C27.8709 110.487 27.6419 110.32 27.3855 110.206C27.1291 110.093 26.8513 110.036 26.5709 110.039ZM17.1619 111.004C16.8337 111.255 16.5259 111.532 16.2412 111.832C16.011 112.073 15.6458 111.707 15.876 111.466C16.1938 111.137 16.5373 110.833 16.9034 110.557C17.1673 110.357 17.4236 110.805 17.1619 111.004ZM12.1901 110.837L10.8044 111.604C10.5128 111.764 10.2519 111.318 10.5435 111.157L11.9292 110.39C12.2207 110.23 12.4816 110.676 12.1901 110.837ZM12.9228 98.2342C13.176 97.4976 13.3617 96.7395 13.4775 95.9692C13.5274 95.6416 14.0246 95.7813 13.9762 96.1066C13.8598 96.8768 13.6739 97.6349 13.4207 98.3715C13.3133 98.6846 12.8138 98.5495 12.9228 98.2342Z" fill="#FFBCBC" fill-opacity="0.65"/>
<path d="M117.364 103.22C112.824 101.102 107.698 100.594 102.83 101.78C101.496 102.116 100.203 102.597 98.9738 103.215C98.9238 103.243 98.8842 103.286 98.8613 103.338C98.8384 103.391 98.8335 103.449 98.8472 103.505C98.8609 103.56 98.8926 103.61 98.9373 103.645C98.982 103.681 99.0371 103.701 99.0943 103.702H117.234C117.476 103.702 117.605 103.333 117.364 103.22Z" fill="black"/>
<path d="M146.214 90.675C142.722 94.1737 142.12 95.607 139.922 97.7975C138.111 99.6223 135.922 101.029 133.51 101.918C133.449 101.929 133.394 101.962 133.354 102.009C133.314 102.057 133.292 102.117 133.291 102.179C133.29 102.241 133.311 102.302 133.35 102.35C133.389 102.399 133.443 102.433 133.504 102.446C136.153 103.48 139.977 102.472 142.726 98.4159C144.268 96.0756 145.572 93.5873 146.619 90.9881C146.727 90.7349 146.438 90.4502 146.214 90.675Z" fill="black"/>
<path d="M90.3242 33.8737C90.5812 34.0801 90.9495 33.7203 90.6901 33.5085L87.6019 31.0295C87.3456 30.8239 86.9774 31.183 87.2367 31.3955L90.3242 33.8737Z" fill="black"/>
<path d="M137.048 58.1393C136.89 57.0835 136.388 56.1093 135.62 55.3678C134.852 54.6262 133.861 54.1587 132.8 54.0378C131.739 53.9168 130.668 54.1491 129.753 54.6986C128.838 55.2482 128.129 56.0843 127.738 57.0774C127.14 59.0217 127.333 59.4835 126.518 60.9199C125.842 62.1122 124.846 62.1743 123.756 61.3457C122.956 60.7254 122.26 59.9822 121.692 59.1436C120.9 58.0217 120.207 56.8328 119.621 55.5904C119.264 54.749 119.139 53.8272 119.259 52.9211C119.327 52.4125 119.341 51.8982 119.301 51.3866C119.275 51.2 119.201 51.0236 119.084 50.8758C118.967 50.728 118.813 50.6143 118.637 50.5464C118.609 50.5357 118.588 50.5188 118.56 50.5104C118.359 50.4327 118.141 50.4098 117.928 50.4442C117.715 50.4786 117.515 50.5689 117.348 50.706C117.055 51.0365 116.857 51.4408 116.776 51.8754C116.535 52.8728 116.46 53.5441 116.263 54.7557C115.186 54.2228 114.004 53.9334 112.802 53.9078C112.253 53.8917 111.501 53.7943 111.068 54.2055C110.904 54.3636 110.791 54.5683 110.747 54.792C110.702 55.0157 110.727 55.2478 110.818 55.4569C111.053 56.0063 111.686 56.1352 112.194 56.3286C112.55 56.4636 112.906 56.5979 113.263 56.7275C113.334 56.7528 113.488 56.7682 113.516 56.848C113.551 56.9454 113.407 56.9247 113.356 56.9247C111.689 56.9731 110.977 56.6048 109.841 57.0636C109.644 57.1232 109.466 57.2341 109.326 57.3852C109.185 57.5362 109.088 57.7218 109.043 57.923C108.998 58.1242 109.008 58.3337 109.071 58.53C109.133 58.7263 109.247 58.9024 109.401 59.0401C109.76 59.2833 110.177 59.4276 110.609 59.4582C111.31 59.5793 112.018 59.6562 112.729 59.6884C112.953 59.7006 113.174 59.7364 113.391 59.7951C111.296 60.1518 110.398 60.1833 109.688 60.837C109.531 61.035 109.447 61.2811 109.45 61.534C109.453 61.7869 109.543 62.0309 109.705 62.225C110.181 62.8012 111.01 62.7275 111.672 62.739C114.073 62.7805 114.256 65.9731 118.025 70.015C121.425 73.6611 125.192 74.4652 128.291 73.5099C129.844 72.9606 131.268 72.0967 132.472 70.9722C133.677 69.8476 134.636 68.4866 135.291 66.9743C136.235 64.8261 136.811 62.5343 136.995 60.1948C137.107 59.5153 137.125 58.8237 137.048 58.1393ZM119.31 62.5319C119.47 62.6209 123.141 64.7247 123.141 64.7247C123.2 64.7592 123.243 64.8158 123.26 64.882C123.278 64.9482 123.268 65.0186 123.234 65.0777C123.199 65.1368 123.143 65.1798 123.076 65.1972C123.01 65.2146 122.94 65.205 122.881 65.1705C122.72 65.0815 119.049 62.9784 119.049 62.9784C119.02 62.9613 118.994 62.9386 118.974 62.9115C118.953 62.8845 118.938 62.8537 118.929 62.8208C118.921 62.788 118.919 62.7537 118.923 62.7201C118.928 62.6865 118.939 62.654 118.956 62.6247C118.973 62.5954 118.996 62.5697 119.023 62.5492C119.05 62.5287 119.081 62.5137 119.114 62.5051C119.147 62.4964 119.181 62.4944 119.215 62.499C119.248 62.5036 119.281 62.5148 119.31 62.5319ZM124.915 71.5004C125.674 71.7086 126.476 71.6967 127.229 71.4659C127.547 71.3646 127.682 71.8641 127.366 71.9639C126.526 72.2351 125.624 72.2474 124.777 71.9992C124.745 71.9901 124.714 71.9748 124.687 71.9539C124.66 71.933 124.638 71.9071 124.621 71.8776C124.587 71.8179 124.579 71.7473 124.597 71.6811C124.615 71.615 124.659 71.5588 124.718 71.5249C124.778 71.491 124.849 71.4822 124.915 71.5004ZM116.091 56.9163C116.419 56.97 116.279 57.4679 115.954 57.415L114.661 57.2055C114.333 57.1526 114.473 56.6546 114.798 56.7068L116.091 56.9163ZM114.805 59.8465C115.27 59.9846 115.751 60.065 116.236 60.0858C116.569 60.0997 116.569 60.6168 116.236 60.6022C115.705 60.5825 115.177 60.4962 114.667 60.3452C114.634 60.3362 114.604 60.3208 114.577 60.2999C114.55 60.2791 114.528 60.2531 114.511 60.2236C114.494 60.1941 114.483 60.1615 114.479 60.1278C114.475 60.0941 114.478 60.0599 114.487 60.0271C114.496 59.9944 114.511 59.9638 114.532 59.937C114.553 59.9102 114.579 59.8877 114.608 59.8709C114.638 59.8542 114.67 59.8434 114.704 59.8392C114.738 59.835 114.772 59.8374 114.805 59.8465Z" fill="#FFBAA5"/>
<path d="M103.289 28.569L102.65 24.4534C102.599 24.1258 102.101 24.2654 102.152 24.5908L102.79 28.7064C102.841 29.034 103.339 28.8944 103.289 28.569Z" fill="black"/>
<path d="M115.195 30.3189L117.33 25.9693C117.476 25.6723 117.03 25.4099 116.884 25.7092L114.749 30.058C114.603 30.3549 115.048 30.6174 115.195 30.3189Z" fill="black"/>
<path d="M125.281 47.7459C126.616 47.2748 127.966 46.8375 129.327 46.4354C129.359 46.4264 129.39 46.411 129.417 46.3902C129.444 46.3693 129.466 46.3434 129.483 46.3138C129.5 46.2843 129.511 46.2518 129.515 46.2181C129.519 46.1844 129.516 46.1501 129.507 46.1174C129.498 46.0847 129.483 46.054 129.462 46.0272C129.441 46.0004 129.415 45.978 129.386 45.9612C129.356 45.9444 129.324 45.9336 129.29 45.9294C129.256 45.9252 129.222 45.9277 129.189 45.9367C127.818 46.292 126.479 46.7769 125.144 47.248C124.834 47.3577 124.966 47.8572 125.281 47.7459Z" fill="black"/>
<path d="M79.3039 42.8023C79.2379 42.7842 79.1673 42.793 79.1078 42.8268C79.0482 42.8606 79.0045 42.9166 78.9863 42.9826C78.9694 43.0486 78.9787 43.1186 79.0123 43.1778C79.046 43.2371 79.1012 43.281 79.1666 43.3003L83.1563 44.9744C83.2224 44.9926 83.2929 44.9838 83.3524 44.95C83.412 44.9162 83.4557 44.8601 83.474 44.7941C83.4909 44.7282 83.4815 44.6582 83.4479 44.5989C83.4143 44.5397 83.359 44.4958 83.2937 44.4765L79.3039 42.8023Z" fill="black"/>
<path d="M148.97 62.673H144.614C144.546 62.673 144.48 62.7003 144.431 62.7488C144.383 62.7973 144.356 62.863 144.356 62.9316C144.356 63.0002 144.383 63.0659 144.431 63.1144C144.48 63.1629 144.546 63.1902 144.614 63.1902H148.97C149.039 63.1902 149.104 63.1629 149.153 63.1144C149.201 63.0659 149.229 63.0002 149.229 62.9316C149.229 62.863 149.201 62.7973 149.153 62.7488C149.104 62.7003 149.039 62.673 148.97 62.673Z" fill="black"/>
<path d="M140.256 52.4976H143.424C143.493 52.4976 143.559 52.4704 143.607 52.4219C143.655 52.3734 143.683 52.3076 143.683 52.239C143.683 52.1705 143.655 52.1047 143.607 52.0562C143.559 52.0077 143.493 51.9805 143.424 51.9805H140.256C140.188 51.9805 140.122 52.0077 140.073 52.0562C140.025 52.1047 139.998 52.1705 139.998 52.239C139.998 52.3076 140.025 52.3734 140.073 52.4219C140.122 52.4704 140.188 52.4976 140.256 52.4976Z" fill="black"/>
<path d="M149.365 47.3645H143.074C143.008 47.3681 142.946 47.3969 142.9 47.4449C142.855 47.4929 142.829 47.5565 142.829 47.6227C142.829 47.6888 142.855 47.7525 142.9 47.8005C142.946 47.8485 143.008 47.8773 143.074 47.8809H149.365C149.431 47.8773 149.494 47.8485 149.539 47.8005C149.585 47.7525 149.61 47.6888 149.61 47.6227C149.61 47.5565 149.585 47.4929 149.539 47.4449C149.494 47.3969 149.431 47.3681 149.365 47.3645Z" fill="black"/>
<path d="M52.1363 59.472C52.1225 59.1413 51.6054 59.139 51.6192 59.472C51.666 59.908 51.5925 60.3485 51.4066 60.7457C51.3244 60.9193 51.1953 61.0664 51.0338 61.1704C50.8723 61.2744 50.6849 61.3312 50.4928 61.3342C50.1039 61.261 49.7482 61.0664 49.4768 60.7784C49.2054 60.4905 49.0322 60.1239 48.9821 59.7313C48.9759 59.6934 48.961 59.6574 48.9384 59.6262C48.9776 58.6802 48.8413 57.7351 48.5363 56.8388C48.5254 56.8055 48.5079 56.7747 48.4848 56.7484C48.4618 56.722 48.4336 56.7006 48.402 56.6855C48.3704 56.6703 48.3361 56.6617 48.3011 56.6602C48.2661 56.6586 48.2312 56.6642 48.1984 56.6766C48.1656 56.6889 48.1357 56.7078 48.1104 56.732C48.0851 56.7562 48.0649 56.7853 48.0512 56.8176C48.0375 56.8498 48.0304 56.8845 48.0304 56.9195C48.0305 56.9545 48.0376 56.9892 48.0514 57.0214C48.2168 57.4955 48.328 57.9869 48.3829 58.4861C48.4962 59.1426 48.4544 59.8166 48.2609 60.4541C48.1828 60.7125 48.0081 60.9308 47.7732 61.0636C47.5382 61.1963 47.2611 61.2334 46.9995 61.1669C45.4757 60.6743 46.1294 58.9219 45.524 57.6421C45.3821 57.3413 44.9386 57.603 45.0782 57.903C45.1494 58.0581 45.2037 58.2204 45.2401 58.3871C45.0735 58.238 44.8781 58.1246 44.666 58.0538C44.4539 57.9831 44.2296 57.9564 44.0068 57.9755C43.784 57.9946 43.5675 58.0591 43.3706 58.165C43.1736 58.2709 43.0004 58.4159 42.8616 58.5912C42.1465 59.6063 42.1082 60.7764 41.9731 62.1712C41.9409 62.5019 42.458 62.4996 42.4903 62.1712C42.4896 61.136 42.6983 60.1114 43.1041 59.159C43.1904 58.9695 43.3265 58.8069 43.4979 58.6887C43.6693 58.5705 43.8696 58.501 44.0774 58.4876C44.2852 58.4742 44.4928 58.5174 44.6779 58.6127C44.8631 58.708 45.019 58.8517 45.1289 59.0285C45.7427 60.1794 44.9816 61.6871 45.6775 63.1012C45.824 63.3996 46.2698 63.138 46.124 62.8403C45.8889 62.2611 45.8067 61.6312 45.8854 61.0111C46.0538 61.2601 46.2884 61.457 46.5629 61.5796C46.8373 61.7022 47.1405 61.7456 47.4383 61.7049C47.7361 61.6642 48.0166 61.541 48.248 61.3493C48.4795 61.1575 48.6527 60.9049 48.7481 60.6198C48.9113 60.9698 49.1662 61.269 49.4856 61.4859C49.8051 61.7028 50.1772 61.8294 50.5627 61.8521C51.7013 61.7815 52.2506 60.5753 52.1363 59.472Z" fill="#4285F4"/>
<path d="M96 109.204C96 88.872 96.0437 84.5492 95.9831 83.5779C95.9639 83.2709 95.934 83.3016 95.8895 83.2709C95.8089 83.2103 75.2232 70.4906 75.1465 70.4438C75.107 70.4205 75.062 70.4081 75.0161 70.4081C74.9702 70.4081 74.9251 70.4205 74.8856 70.4438C74.4345 70.7139 53.9884 83.1267 53.9079 83.1873C53.601 83.4175 53.7091 83.4106 53.7022 83.475C53.7022 110.957 53.6769 109.464 53.7375 109.678C53.7997 109.768 52.3227 108.723 74.5764 124.247C74.6157 124.272 74.6608 124.284 74.7069 124.284C74.7529 124.284 74.7981 124.272 74.8373 124.247C79.381 121.121 95.8419 109.803 95.924 109.73C96.046 109.603 96 109.365 96 109.204ZM75.0176 70.9717C75.0176 70.9717 95.0762 83.3799 95.232 83.4781C95.232 83.4781 75.0744 95.5809 74.848 95.7382C74.1997 95.3485 55.2061 83.8909 54.468 83.4666C57.5976 81.5669 74.9424 71.0254 75.0176 70.9717ZM75.1427 115.642C75.1427 115.71 75.1154 115.776 75.0669 115.825C75.0185 115.873 74.9527 115.9 74.8841 115.9C74.8155 115.9 74.7498 115.873 74.7013 115.825C74.6528 115.776 74.6255 115.71 74.6255 115.642V102.575C74.6281 102.506 74.6578 102.441 74.708 102.395C74.7581 102.348 74.8248 102.323 74.8933 102.325C74.9589 102.327 75.0213 102.354 75.0677 102.4C75.1141 102.447 75.1409 102.509 75.1427 102.575C75.1872 105.146 75.201 112.274 75.1427 115.643V115.642Z" fill="#021C63"/>
<path d="M90.2648 82.6106C89.9978 82.2136 89.6323 81.8927 89.2041 81.6794C88.7758 81.466 88.2995 81.3676 87.8218 81.3937C87.8218 81.3937 62.3003 81.3753 61.9381 81.4052C61.4615 81.4087 60.9953 81.546 60.5929 81.8014C60.1904 82.0568 59.8677 82.4202 59.6617 82.85C59.232 84.0408 60.4473 85.4587 62.7353 85.2991C62.7353 85.2991 87.373 85.2945 87.7796 85.2991C89.7553 85.3198 90.9285 83.8482 90.2648 82.6106ZM82.2169 82.6398C82.2169 82.5712 82.2442 82.5054 82.2927 82.4569C82.3412 82.4084 82.4069 82.3812 82.4755 82.3812C82.5441 82.3812 82.6098 82.4084 82.6583 82.4569C82.7068 82.5054 82.7341 82.5712 82.7341 82.6398V83.9572C82.7341 84.0257 82.7068 84.0915 82.6583 84.14C82.6098 84.1885 82.5441 84.2157 82.4755 84.2157C82.4069 84.2157 82.3412 84.1885 82.2927 84.14C82.2442 84.0915 82.2169 84.0257 82.2169 83.9572V82.6398ZM66.508 82.6398C66.5116 82.5737 66.5403 82.5116 66.5884 82.4661C66.6364 82.4206 66.7 82.3953 66.7661 82.3953C66.8323 82.3953 66.8959 82.4206 66.9439 82.4661C66.992 82.5116 67.0207 82.5737 67.0243 82.6398V83.862C67.0207 83.9281 66.992 83.9902 66.9439 84.0357C66.8959 84.0812 66.8323 84.1065 66.7661 84.1065C66.7 84.1065 66.6364 84.0812 66.5884 84.0357C66.5403 83.9902 66.5116 83.9281 66.508 83.862V82.6398Z" fill="#2755A0"/>
<path d="M38.3195 90.01L39.8356 90.5432C40.1502 90.6537 40.286 90.1542 39.9737 90.0445L38.4568 89.512C38.1423 89.4015 38.0072 89.901 38.3195 90.01Z" fill="#2755A0"/>
<path d="M123.147 64.7211C123.147 64.7211 119.476 62.6172 119.316 62.5282C119.257 62.4936 119.186 62.484 119.12 62.5014C119.053 62.5188 118.997 62.5618 118.962 62.6211C118.927 62.6803 118.918 62.7508 118.935 62.8171C118.953 62.8835 118.996 62.9402 119.055 62.9748C119.055 62.9748 122.726 65.0778 122.887 65.1669C122.945 65.1964 123.013 65.2024 123.076 65.1836C123.139 65.1649 123.193 65.1229 123.226 65.0661C123.259 65.0093 123.269 64.942 123.255 64.8779C123.24 64.8138 123.201 64.7577 123.147 64.7211Z" fill="black"/>
<path d="M95.4844 112.278V118.416C95.488 118.482 95.5167 118.544 95.5648 118.589C95.6128 118.635 95.6764 118.66 95.7426 118.66C95.8087 118.66 95.8723 118.635 95.9203 118.589C95.9684 118.544 95.9971 118.482 96.0007 118.416V112.278C95.9971 112.212 95.9684 112.149 95.9203 112.104C95.8723 112.058 95.8087 112.033 95.7426 112.033C95.6764 112.033 95.6128 112.058 95.5648 112.104C95.5167 112.149 95.488 112.212 95.4844 112.278Z" fill="black"/>
<path d="M11.9289 110.391L10.5432 111.158C10.2516 111.319 10.5125 111.765 10.8041 111.605L12.1898 110.837C12.4813 110.676 12.2204 110.23 11.9289 110.391Z" fill="#4285F4"/>
<path d="M54.8797 118.416V112.277C54.8797 112.209 54.8524 112.143 54.804 112.095C54.7555 112.046 54.6897 112.019 54.6211 112.019C54.5525 112.019 54.4868 112.046 54.4383 112.095C54.3898 112.143 54.3625 112.209 54.3625 112.277V118.416C54.3625 118.484 54.3898 118.55 54.4383 118.598C54.4868 118.647 54.5525 118.674 54.6211 118.674C54.6897 118.674 54.7555 118.647 54.804 118.598C54.8524 118.55 54.8797 118.484 54.8797 118.416Z" fill="black"/>
<path d="M74.4487 125.742V128.936C74.4487 129.004 74.476 129.07 74.5245 129.118C74.573 129.167 74.6387 129.194 74.7073 129.194C74.7759 129.194 74.8416 129.167 74.8901 129.118C74.9386 129.07 74.9659 129.004 74.9659 128.936V125.742C74.9659 125.674 74.9386 125.608 74.8901 125.559C74.8416 125.511 74.7759 125.484 74.7073 125.484C74.6387 125.484 74.573 125.511 74.5245 125.559C74.476 125.608 74.4487 125.674 74.4487 125.742Z" fill="black"/>
<path d="M16.9012 110.557C16.5351 110.833 16.1916 111.137 15.8738 111.466C15.6436 111.707 16.0088 112.073 16.239 111.832C16.5237 111.532 16.8315 111.255 17.1597 111.004C17.4229 110.805 17.1666 110.357 16.9012 110.557Z" fill="#4285F4"/>
<path d="M13.4777 95.9694C13.3619 96.7396 13.1762 97.4977 12.923 98.2343C12.8148 98.5497 13.3135 98.6847 13.4209 98.3717C13.674 97.635 13.86 96.8769 13.9764 96.1067C14.0248 95.7814 13.5276 95.6417 13.4777 95.9694Z" fill="#4285F4"/>
<path d="M75.1429 115.643V102.575C75.1429 102.506 75.1156 102.44 75.0671 102.392C75.0186 102.343 74.9529 102.316 74.8843 102.316C74.8157 102.316 74.75 102.343 74.7015 102.392C74.653 102.44 74.6257 102.506 74.6257 102.575V115.643C74.6257 115.712 74.653 115.778 74.7015 115.826C74.75 115.875 74.8157 115.902 74.8843 115.902C74.9529 115.902 75.0186 115.875 75.0671 115.826C75.1156 115.778 75.1429 115.712 75.1429 115.643Z" fill="black"/>
<path d="M44.6605 94.5199C44.6484 94.4857 44.6294 94.4544 44.6046 94.428C44.5797 94.4015 44.5496 94.3806 44.5162 94.3665C44.3344 94.2898 44.0758 94.4248 44.1625 94.6581C45.8781 99.2962 45.5981 102.605 44.0858 106.756C44.068 106.822 44.0772 106.892 44.1114 106.952C44.1457 107.011 44.2021 107.055 44.2684 107.072C44.3346 107.09 44.4052 107.081 44.4646 107.047C44.5241 107.012 44.5675 106.956 44.5853 106.89C45.1654 105.412 45.5573 103.867 45.7515 102.292C46.015 99.651 45.6408 96.9859 44.6605 94.5199Z" fill="#2755A0"/>
<path d="M35.9147 34.5381C36.1886 34.7284 36.4457 34.2842 36.1756 34.0924C35.9739 33.9457 35.8033 33.7605 35.6736 33.5475C35.5439 33.3345 35.4578 33.0979 35.4201 32.8514C35.3824 32.6049 35.394 32.3534 35.4541 32.1114C35.5143 31.8694 35.6218 31.6417 35.7705 31.4415C35.9684 31.1737 35.5173 30.9144 35.3247 31.1806C35.1412 31.4392 35.0109 31.7316 34.9412 32.0409C34.8715 32.3502 34.8639 32.6703 34.9187 32.9826C34.9736 33.2948 35.0899 33.5931 35.2609 33.8601C35.4318 34.1272 35.6541 34.3576 35.9147 34.5381Z" fill="black"/>
<path d="M22.8138 41.5272L23.1445 39.5247C23.1982 39.1993 22.7002 39.0597 22.6458 39.3873L22.3151 41.3899C22.2614 41.7152 22.7593 41.8548 22.8138 41.5272Z" fill="black"/>
<path d="M127.232 71.462C126.479 71.6928 125.677 71.7047 124.918 71.4966C124.885 71.4875 124.851 71.4851 124.817 71.4893C124.783 71.4935 124.751 71.5043 124.721 71.521C124.662 71.5549 124.618 71.6111 124.6 71.6772C124.581 71.7434 124.59 71.814 124.624 71.8737C124.658 71.9333 124.714 71.9771 124.78 71.9953C125.626 72.2428 126.527 72.2305 127.366 71.96C127.685 71.8602 127.55 71.3607 127.232 71.462Z" fill="#4285F4"/>
<path d="M114.662 57.2016L115.955 57.4111C116.28 57.464 116.42 56.9661 116.092 56.9124L114.799 56.7029C114.476 56.6507 114.334 57.1487 114.662 57.2016Z" fill="#4285F4"/>
<path d="M116.237 60.0888C115.751 60.067 115.27 59.9856 114.805 59.8464C114.772 59.8374 114.738 59.8349 114.704 59.8391C114.67 59.8433 114.638 59.8541 114.608 59.8709C114.579 59.8876 114.553 59.9101 114.532 59.9369C114.511 59.9637 114.496 59.9943 114.487 60.0271C114.478 60.0598 114.475 60.094 114.48 60.1277C114.484 60.1614 114.495 60.194 114.511 60.2235C114.528 60.253 114.551 60.279 114.577 60.2998C114.604 60.3207 114.635 60.3361 114.668 60.3451C115.178 60.4965 115.705 60.5828 116.237 60.6021C116.57 60.6198 116.569 60.1026 116.237 60.0888Z" fill="#4285F4"/>
<path d="M115.434 71.9545C114.227 72.7743 113.08 73.6792 112.001 74.6622C111.958 74.7117 111.935 74.7759 111.937 74.8417C111.939 74.9075 111.966 74.9701 112.012 75.0167C112.059 75.0633 112.122 75.0904 112.187 75.0925C112.253 75.0946 112.317 75.0716 112.367 75.0282C113.411 74.0723 114.523 73.194 115.695 72.4003C115.957 72.2231 115.716 71.765 115.434 71.9545Z" fill="#FFBAA5"/>
<path d="M109.039 80.3778C108.494 80.9538 108.016 81.5904 107.615 82.2752C107.583 82.3342 107.576 82.4032 107.594 82.4675C107.612 82.5319 107.655 82.5867 107.713 82.6204C107.77 82.654 107.839 82.664 107.904 82.6481C107.969 82.6323 108.025 82.5918 108.061 82.5353C108.449 81.8954 108.899 81.2951 109.405 80.743C109.63 80.499 109.266 80.133 109.039 80.3778Z" fill="#FFBAA5"/>
<path d="M84.814 50.4404C84.6207 50.1733 84.1726 50.4312 84.3682 50.7005L84.9406 51.4915C85.134 51.7585 85.582 51.5007 85.3864 51.2306L84.814 50.4404Z" fill="#4285F4"/>
<path d="M87.0705 48.2047C87.1069 48.2603 87.1631 48.2997 87.2277 48.3149C87.2923 48.3302 87.3603 48.3199 87.4176 48.2864C87.4748 48.2529 87.517 48.1987 87.5354 48.1349C87.5538 48.0711 87.547 48.0027 87.5163 47.9439C87.3191 47.5986 87.1005 47.2656 86.9025 46.9211C86.8679 46.8619 86.8112 46.8189 86.7449 46.8014C86.6785 46.784 86.608 46.7937 86.5488 46.8283C86.4896 46.8629 86.4465 46.9196 86.4291 46.9859C86.4117 47.0522 86.4214 47.1228 86.456 47.182C86.6593 47.5227 86.8611 47.8664 87.0705 48.2047Z" fill="#4285F4"/>
<path d="M119.645 38.5413C121.075 39.9086 123.355 40.0237 124.325 38.3111C125.571 37.6795 126.909 37.2496 128.289 37.0375C130.354 36.6001 129.702 34.6229 128.34 34.3697C130.614 32.6572 128.613 31.1794 126.531 32.2168C126.556 32.0201 126.525 31.8202 126.441 31.6405C126.358 31.4608 126.224 31.3086 126.057 31.2017C125.757 31.0496 125.424 30.9728 125.087 30.9779C124.75 30.983 124.42 31.0698 124.124 31.2308C122.517 31.8419 121.178 33.0009 120.342 34.5032C119.964 34.6595 119.632 34.909 119.376 35.2285C119.12 35.5479 118.95 35.9268 118.88 36.33C118.81 36.7332 118.844 37.1474 118.978 37.534C119.111 37.9207 119.341 38.2672 119.645 38.5413ZM125.692 32.9579C125.694 33.0269 125.716 33.0938 125.755 33.1506C125.794 33.2075 125.848 33.2518 125.912 33.2784C125.976 33.3049 126.046 33.3124 126.113 33.3001C126.181 33.2877 126.244 33.2561 126.294 33.2088C127.306 32.2781 129.388 32.3886 128.374 33.4022C127.821 33.9331 127.175 34.3573 126.468 34.6536C126.084 34.8178 126.346 35.4347 126.735 35.305L126.777 35.2912C127.376 35.0932 128.196 34.8224 128.69 35.3257C128.772 35.3972 128.834 35.4899 128.867 35.5938C128.9 35.6977 128.905 35.8088 128.879 35.915C128.485 36.6055 127.371 36.1359 124.633 37.3728C124.818 35.7001 123.079 34.1579 121.334 34.2584C122.226 32.9836 123.546 32.071 125.054 31.6866C125.189 31.6471 125.332 31.6495 125.466 31.6933C125.599 31.7371 125.716 31.8204 125.801 31.9321C125.894 32.2122 125.739 32.3687 125.692 32.9579ZM123.222 38.5168C121.747 39.6255 118.81 37.8968 119.708 36.0469C120.601 34.2093 123.334 34.827 123.901 36.7981C123.961 37.1194 123.929 37.4512 123.809 37.7553C123.689 38.0594 123.486 38.3234 123.222 38.5168Z" fill="black"/>
<path d="M46.2054 32.8441C46.2846 33.384 46.5591 33.876 46.9768 34.2272C47.3945 34.5783 47.9264 34.764 48.4719 34.7492C48.9648 34.7446 49.4462 34.5993 49.8594 34.3304C50.2726 34.0616 50.6004 33.6803 50.8044 33.2315C50.9132 32.9373 50.9397 32.619 50.8811 32.3108C51.008 30.943 51.0352 29.5678 50.9624 28.196C51.0392 26.775 50.3064 26.4021 48.9384 26.2126C48.3265 26.0901 47.6938 26.1212 47.097 26.3032C46.8325 26.4314 46.6116 26.6346 46.4615 26.8873C46.3115 27.1401 46.239 27.4313 46.253 27.7249C46.1197 29.2543 46.1154 30.7922 46.2399 32.3223C46.2095 32.4945 46.198 32.6694 46.2054 32.8441ZM50.2558 31.0425C50.0387 30.8112 49.7765 30.6268 49.4854 30.5008C49.1943 30.3747 48.8804 30.3097 48.5632 30.3097C48.246 30.3097 47.9321 30.3747 47.641 30.5008C47.3499 30.6268 47.0877 30.8112 46.8706 31.0425C46.8182 29.8947 46.8536 28.7446 46.9765 27.6021C46.9736 27.4792 47.0026 27.3576 47.0607 27.2492C47.1188 27.1408 47.204 27.0493 47.308 26.9837C47.6009 26.8784 47.9133 26.8386 48.2233 26.8671C48.5895 26.8718 48.9539 26.9179 49.3097 27.0044C50.0655 27.1049 50.3425 27.5223 50.2658 28.4569C50.3069 29.3184 50.3035 30.1814 50.2558 31.0425ZM49.8192 31.6433C50.0528 31.9212 50.1896 32.2675 50.209 32.63C50.2021 33.4556 49.1471 34.0963 48.3415 34.0418C48.0063 34.0167 47.6876 33.8863 47.4309 33.6693C47.1742 33.4522 46.9926 33.1597 46.912 32.8333C46.79 31.1277 48.9729 30.3835 49.8207 31.6433H49.8192Z" fill="black"/>
<path d="M27.4482 70.0013C28.1142 70.0637 28.7804 69.8845 29.3252 69.4964C29.8701 69.1083 30.2572 68.5373 30.416 67.8875C30.5548 67.3131 30.4994 66.7088 30.2584 66.1692C30.0175 65.6296 29.6044 65.1851 29.084 64.9051C28.4815 64.6054 27.8003 64.5018 27.136 64.6089C26.4716 64.7159 25.8575 65.0282 25.3796 65.5021C25.0878 65.9112 24.9092 66.3901 24.8618 66.8904C24.8145 67.3907 24.9001 67.8946 25.11 68.3511C25.3199 68.8077 25.6467 69.2008 26.0573 69.4905C26.4678 69.7803 26.9477 69.9565 27.4482 70.0013ZM26.5558 65.4798C27.9952 64.9281 29.6932 65.5673 29.7645 67.1478C29.7899 67.6567 29.6241 68.1567 29.2997 68.5497C28.9754 68.9426 28.5158 69.2001 28.0113 69.2716C27.4522 69.3534 26.8833 69.212 26.4275 68.878C25.9717 68.5439 25.6656 68.044 25.5753 67.4862C25.4954 67.0905 25.5482 66.6795 25.7255 66.3168C25.9027 65.9541 26.1946 65.6599 26.5558 65.4798Z" fill="black"/>
<path d="M52.4633 29.6339C52.5428 29.6763 52.6354 29.687 52.7225 29.664C52.8096 29.6409 52.8848 29.5858 52.9329 29.5096L55.8086 24.695C55.8559 24.6136 55.8689 24.5167 55.8448 24.4257C55.8207 24.3347 55.7615 24.257 55.6801 24.2097C55.5987 24.1624 55.5018 24.1493 55.4108 24.1735C55.3198 24.1976 55.2421 24.2568 55.1948 24.3382C54.2247 25.9359 53.2661 27.5406 52.3191 29.152C52.2963 29.193 52.282 29.2381 52.2769 29.2847C52.2719 29.3313 52.2762 29.3784 52.2897 29.4233C52.3031 29.4682 52.3254 29.51 52.3552 29.5462C52.385 29.5823 52.4218 29.6121 52.4633 29.6339Z" fill="black"/>
<path d="M54.375 30.0474L57.319 27.827C57.6803 27.5538 57.3113 26.9485 56.9422 27.227L53.9982 29.452C53.6353 29.7221 54.0044 30.326 54.375 30.0474Z" fill="black"/>
<path d="M142.768 89.8642C142.801 89.8306 142.827 89.7907 142.844 89.747C142.861 89.7033 142.87 89.6566 142.869 89.6096C142.869 89.5626 142.859 89.5161 142.84 89.4729C142.822 89.4297 142.795 89.3906 142.761 89.3578C140.414 87.4236 134.73 82.6335 132.271 79.6458C133.892 78.7249 135.35 77.5413 136.584 76.1432C138.511 73.9258 139.37 70.9258 139.135 67.233C138.696 60.2724 139.129 52.6419 135.289 48.1573C133.135 45.6597 130.192 43.9743 126.948 43.381C124.326 43.1329 121.681 43.4137 119.17 44.2066C118.471 41.1615 116.852 38.4055 114.531 36.3135C112.211 34.2216 109.302 32.8953 106.201 32.5151C103.1 32.135 99.9573 32.7194 97.2003 34.1889C94.4432 35.6584 92.2058 37.9416 90.7925 40.7278C90.5278 41.2496 90.4027 41.5565 89.4452 43.757C89.1091 43.9872 88.7938 44.2833 88.5244 44.5051C87.0498 45.567 85.7172 46.8135 84.5592 48.214C84.132 48.7966 83.8419 49.4682 83.7105 50.1785C83.5791 50.8889 83.6098 51.6198 83.8004 52.3166C83.9959 53.0061 84.3975 53.6195 84.9513 54.0744L83.5518 57.2862C83.5287 57.3273 83.5139 57.3725 83.5084 57.4193C83.5028 57.4661 83.5065 57.5135 83.5194 57.5589C83.5322 57.6042 83.5539 57.6466 83.5831 57.6836C83.6124 57.7205 83.6487 57.7513 83.6899 57.7742L89.4245 60.2747L88.0633 63.5248C88.037 63.6149 88.0475 63.7117 88.0925 63.794C88.1375 63.8763 88.2134 63.9373 88.3035 63.9637C88.3935 63.99 88.4903 63.9795 88.5727 63.9345C88.655 63.8895 88.716 63.8136 88.7424 63.7235L90.0705 60.5563L103.465 66.3959L102.068 69.2463C101.866 69.656 102.482 70.0074 102.687 69.5916L104.114 66.676L110.228 69.3414C110.542 71.2033 111.044 73.0285 111.727 74.789C108.563 77.5128 104.478 81.5187 102.859 85.2161C100.965 89.5412 100.068 95.2558 99.8585 99.1681C99.8593 99.2618 99.8969 99.3514 99.9632 99.4176C100.03 99.4838 100.119 99.5212 100.213 99.5218H116.599C116.679 99.5203 116.755 99.4928 116.818 99.4434C116.88 99.394 116.924 99.3256 116.943 99.2486C117.319 96.3234 118.243 93.4951 119.665 90.9115C123.056 94.9414 127.368 98.0958 132.235 100.108C132.295 100.125 132.359 100.125 132.419 100.109C132.48 100.093 132.535 100.062 132.58 100.018C135.121 97.5238 141.981 90.6545 142.768 89.8642ZM131.655 80.0256C134.249 83.1307 139.679 87.7282 141.994 89.6417C138.542 93.0944 136.335 95.5121 132.25 99.3553C127.505 97.3592 123.315 94.2435 120.037 90.2747C123.015 85.576 127.229 82.7386 131.655 80.0256ZM100.588 98.8144C100.822 94.8435 101.584 90.9215 102.855 87.1519C103.576 85.0535 104.718 82.6297 108.153 79.131C110.475 76.7472 112.98 74.5482 115.644 72.554C115.772 72.4688 115.821 72.4351 115.861 72.356C116.687 71.7284 117.526 71.1173 118.377 70.523C121.356 73.5154 124.976 74.6409 128.319 73.6105C131.247 72.5915 133.661 70.4682 135.044 67.6941H138.45C138.675 70.3602 137.958 73.0207 136.425 75.2133C134.091 78.3645 131.049 79.0903 125.308 83.4998C122.843 85.307 120.772 87.5979 119.222 90.2323C117.672 92.8667 116.676 95.7895 116.293 98.822L100.588 98.8144ZM111.654 45.9107C111.483 46.2619 111.204 46.55 110.86 46.734C110.592 46.9067 110.303 47.0422 109.999 47.1368C110.423 46.652 110.873 46.1909 111.347 45.7557C111.694 45.4772 111.73 45.755 111.654 45.9107ZM107.92 45.4688C107.965 43.8115 109.071 43.503 109.058 43.7309C109.058 44.2864 108.338 45.0936 107.92 45.4688ZM105.351 43.0596C105.352 42.6984 105.433 42.3418 105.585 42.0145C105.776 41.6977 106.15 41.8327 106.09 42.0399C105.931 42.4354 105.677 42.7857 105.351 43.0596ZM101.63 40.8406C101.652 40.7928 101.686 40.7513 101.729 40.7201C101.771 40.6889 101.821 40.669 101.873 40.6622C101.925 40.6555 101.978 40.6621 102.028 40.6815C102.077 40.7009 102.12 40.7324 102.153 40.7731C102.435 41.2235 102.354 41.6409 102.063 43.2483C101.771 42.9286 101.576 42.5329 101.499 42.1069C101.422 41.6809 101.468 41.2419 101.63 40.8406ZM102.561 44.4406C102.919 44.5814 103.303 44.6433 103.687 44.622C104.071 44.6006 104.446 44.4966 104.786 44.3171C104.919 45.2677 105.414 46.1303 106.167 46.7256C106.363 46.8238 106.581 46.872 106.8 46.8658C107.02 46.8597 107.234 46.7994 107.424 46.6903C107.612 47.1764 107.973 47.576 108.437 47.812C104.266 52.4484 100.778 57.6567 98.0792 63.2793L95.3938 62.1107C98.9282 56.7528 101.364 50.7468 102.561 44.4406ZM109.241 47.9739C110.276 47.9297 111.253 47.4822 111.962 46.7271C112.661 46.0787 112.439 44.8481 111.557 44.9002C110.97 45.0238 110.706 45.2839 108.941 47.2358C108.72 47.172 108.52 47.0523 108.36 46.8882C108.2 46.7242 108.085 46.5214 108.026 46.2997C108.769 45.7562 109.348 45.0196 109.702 44.1698C109.763 44.0416 109.791 43.9001 109.784 43.7582C109.776 43.6163 109.733 43.4785 109.658 43.3577C109.583 43.2368 109.48 43.1366 109.356 43.0662C109.233 42.9959 109.093 42.9578 108.951 42.9552C108.742 42.9697 108.538 43.0282 108.353 43.127C108.168 43.2258 108.006 43.3625 107.877 43.5284C107.611 43.8725 107.417 44.2671 107.307 44.6883C107.197 45.1095 107.174 45.5485 107.238 45.979C107.062 46.103 106.852 46.1692 106.637 46.1685C106.527 46.1255 106.428 46.0572 106.348 45.969C105.84 45.3965 105.517 44.6842 105.42 43.925C106.07 43.4783 106.556 42.8318 106.805 42.0836C106.917 41.2879 106.015 40.9434 105.401 41.2396C105.228 41.3533 105.08 41.5022 104.968 41.6765C104.855 41.8508 104.781 42.0467 104.749 42.2516C104.656 42.6867 104.632 43.1334 104.677 43.5759C104.391 43.7728 104.058 43.8906 103.712 43.9176C103.366 43.9445 103.019 43.8796 102.707 43.7294C102.849 43.0708 102.956 42.4048 103.025 41.7345C103.081 41.1867 102.974 40.2 102.223 39.992C102.011 39.9365 101.787 39.9471 101.582 40.0224C101.376 40.0977 101.198 40.2341 101.072 40.4133C100.45 41.2864 100.689 43.0987 101.916 44.0693C100.754 50.4139 98.313 56.4555 94.7408 61.8261C93.7863 61.4072 85.3434 57.7036 84.3267 57.2724L85.4999 54.58C85.6807 54.8161 85.9217 54.9992 86.1977 55.1101C86.4736 55.2209 86.7743 55.2554 87.0682 55.21C87.236 55.1699 87.3941 55.0969 87.5334 54.9951C87.6726 54.8932 87.7902 54.7647 87.8792 54.6169C88.295 53.9263 87.847 53.2059 87.4518 52.5683C87.3232 52.359 87.1896 52.1528 87.0513 51.9499C87.9436 52.5637 88.4799 53.1399 89.1996 53.2089C89.8956 53.2757 90.2677 52.5591 90.1403 51.8977C89.9984 51.1626 89.373 50.7253 88.4822 49.3181C89.1051 49.9356 89.8764 50.3824 90.7219 50.6156C91.9395 50.7974 93.2439 49.1256 90.8822 48.0583C90.2447 47.7698 89.4743 47.3816 89.9224 46.8498C90.1925 46.588 90.4886 46.3546 90.8063 46.1532C92.4175 45.0023 91.7017 43.2076 90.3889 43.3672C90.3889 43.3672 90.8715 42.2616 91.0388 41.8757C92.4536 38.5872 95.0353 35.9386 98.2865 34.4402C101.538 32.9418 105.229 32.6996 108.648 33.7603C112.067 34.8209 114.973 37.1094 116.805 40.1849C118.637 43.2603 119.267 46.905 118.572 50.4169C118.355 50.3393 118.122 50.3197 117.896 50.36C117.669 50.4004 117.457 50.4994 117.281 50.647C116.673 51.3307 116.612 52.0036 116.193 54.6169C115.134 54.1135 113.981 53.8407 112.809 53.8166C112.218 53.8005 111.468 53.7023 111.006 54.1404C110.828 54.3123 110.706 54.5344 110.658 54.7772C110.609 55.02 110.635 55.2719 110.734 55.4992C111.012 56.1483 111.654 56.2082 113.279 56.8389C111.744 56.8726 110.947 56.5251 109.81 56.9823C109.595 57.0475 109.402 57.1689 109.25 57.334C109.099 57.499 108.994 57.7017 108.947 57.9209C108.9 58.1401 108.913 58.368 108.983 58.5807C109.054 58.7934 109.181 58.9833 109.35 59.1307C109.72 59.3813 110.149 59.5307 110.595 59.5642C111.331 59.6888 112.074 59.7684 112.82 59.8028C111.387 60.033 110.33 60.1289 109.615 60.7872C109.445 61.0027 109.354 61.27 109.357 61.5445C109.36 61.8191 109.458 62.0842 109.633 62.2957C110.131 62.8995 110.937 62.8327 111.671 62.845C111.963 62.8506 112.251 62.9146 112.519 63.0332C112.786 63.1517 113.027 63.3225 113.227 63.5355C113.227 63.5355 111.169 68.2159 110.896 68.8742L98.7283 63.5693C101.453 57.8857 104.994 52.6316 109.241 47.9739ZM84.3421 50.8304L84.8623 51.5478C85.1255 51.9138 85.737 51.5524 85.4638 51.1749L84.8907 50.3839C84.8372 50.3097 84.758 50.258 84.6686 50.2388C84.5791 50.2197 84.4857 50.2345 84.4065 50.2803C84.7246 49.085 85.417 48.023 86.3822 47.2496C86.3822 47.2496 86.8503 48.033 86.9876 48.2555C87.0112 48.2958 87.0425 48.331 87.0797 48.3593C87.1169 48.3875 87.1593 48.4081 87.2045 48.4199C87.2496 48.4317 87.2967 48.4345 87.3429 48.4282C87.3892 48.4218 87.4338 48.4064 87.4741 48.3828C87.5144 48.3593 87.5496 48.328 87.5778 48.2908C87.6061 48.2536 87.6267 48.2112 87.6385 48.166C87.6503 48.1208 87.6531 48.0738 87.6468 48.0275C87.6404 47.9813 87.625 47.9367 87.6014 47.8964C87.4027 47.5473 87.1894 47.2227 86.9876 46.8729C86.9659 46.8358 86.9375 46.803 86.904 46.7762C87.5738 46.1946 89.5695 44.5266 90.0007 44.2511C90.1411 44.1614 90.6206 43.8966 90.9076 44.2304C90.9868 44.342 91.0306 44.4748 91.0334 44.6117C91.0361 44.7485 90.9976 44.883 90.9229 44.9977C90.5938 45.6046 89.8649 45.8417 89.3991 46.3703C89.2746 46.5082 89.1838 46.6731 89.134 46.8521C89.0842 47.031 89.0768 47.2191 89.1122 47.4015C89.4835 48.6828 90.992 48.488 91.4224 49.2997C91.4583 49.3565 91.4764 49.4226 91.4745 49.4897C91.4726 49.5568 91.4507 49.6218 91.4117 49.6765C91.3411 49.7618 91.2503 49.8282 91.1475 49.8694C91.0447 49.9107 90.9332 49.9256 90.8232 49.9128C89.8188 49.6757 89.3401 49.0465 88.5605 48.4795C88.4243 48.3798 88.2543 48.3376 88.0873 48.362C87.9202 48.3864 87.7694 48.4754 87.6674 48.61C87.4334 48.9253 87.6344 49.2637 87.7948 49.536C88.7692 51.1903 89.7252 51.7765 89.4337 52.3749C89.2802 52.6857 88.7531 52.302 88.47 52.0949C88.2291 51.9192 88.2874 51.9713 87.7533 51.5739C87.2193 51.1765 86.9638 50.9869 86.6193 51.0821C86.4573 51.1273 86.3197 51.2346 86.2364 51.3807C86.153 51.5268 86.1307 51.6999 86.1743 51.8624C86.2549 52.1539 86.8342 52.714 87.2485 53.6992C87.3008 53.7877 87.3288 53.8885 87.3296 53.9913C87.3304 54.0941 87.304 54.1953 87.2531 54.2846C87.1734 54.3989 87.0551 54.4804 86.9199 54.5141C86.7848 54.5478 86.642 54.5314 86.5181 54.468C86.2267 54.2827 85.9605 54.0604 85.7262 53.8066C85.431 53.5748 85.1626 53.3108 84.926 53.0194C84.5143 52.3657 84.3107 51.6024 84.3421 50.8304ZM118.811 55.1762C119.407 56.6444 120.167 58.0403 121.078 59.3371C121.643 60.1627 123.627 62.8297 125.499 62.4921C127.125 62.1982 127.786 59.5703 127.954 58.7655C128.05 58.1022 128.241 57.4562 128.521 56.8473C129.057 55.8581 129.963 55.1219 131.041 54.8002C132.119 54.4786 133.281 54.5978 134.271 55.1317C134.912 55.4702 135.454 55.9701 135.842 56.5819C136.231 57.1938 136.454 57.8964 136.488 58.6205C136.495 59.3314 136.44 60.0416 136.322 60.7427C136.095 62.978 135.487 65.1579 134.524 67.1877C132.913 70.4371 129.581 73.279 125.854 73.279C120.581 73.279 117.031 68.2703 114.809 64.4908C114.074 63.2394 113.176 62.1376 111.723 62.1376C111.179 62.1376 110.431 62.2389 110.15 61.7969C109.727 61.1317 110.776 60.8762 111.558 60.7266C113.255 60.399 114.076 60.5309 114.072 59.7944C114.072 59.1407 113.175 59.1 112.695 59.077C111.777 59.0512 110.866 58.9205 109.978 58.6872C109.874 58.6501 109.785 58.5827 109.72 58.4937C109.656 58.4047 109.62 58.2983 109.617 58.1885C109.637 57.7987 110.131 57.6054 110.276 57.5578C110.86 57.4275 111.464 57.409 112.055 57.5033C112.583 57.5756 113.117 57.58 113.646 57.5164C113.785 57.476 113.907 57.3925 113.994 57.278C114.082 57.1635 114.13 57.024 114.133 56.8798C114.136 56.7357 114.092 56.5945 114.009 56.4768C113.926 56.3592 113.807 56.2712 113.67 56.2258C113.312 56.0854 112.004 55.6043 111.706 55.49C111.597 55.4609 111.501 55.3946 111.436 55.3024C111.37 55.2103 111.339 55.0982 111.348 54.9855C111.356 54.8728 111.404 54.7667 111.483 54.6855C111.561 54.6043 111.666 54.5532 111.778 54.5409C113.339 54.4098 114.905 54.7372 116.283 55.4831C116.323 55.507 116.368 55.5226 116.414 55.529C116.461 55.5354 116.508 55.5324 116.554 55.5204C116.599 55.5083 116.642 55.4873 116.679 55.4587C116.716 55.43 116.747 55.3942 116.771 55.3534C116.857 55.0237 116.918 54.6876 116.952 54.3483C117.03 53.348 117.245 52.3631 117.591 51.4212C117.631 51.2934 117.718 51.1857 117.835 51.1197C117.952 51.0536 118.089 51.0342 118.219 51.0652C118.285 51.0649 118.349 51.0775 118.41 51.1023C118.47 51.1271 118.525 51.1636 118.572 51.2097C118.618 51.2559 118.655 51.3107 118.68 51.3711C118.705 51.4314 118.719 51.4962 118.719 51.5616C118.714 53.3785 118.416 53.6064 118.811 55.1762ZM112.538 66.8755L113.731 64.1394C114.107 64.665 114.595 65.5657 115.471 66.8839C114.901 66.8831 113.138 66.8793 112.538 66.8755ZM111.392 69.5026L112.224 67.5928H115.956C116.541 68.4406 117.184 69.2469 117.88 70.0059C116.316 71.1092 113.572 73.1478 112.283 74.2842C111.718 72.7909 111.288 71.2503 110.998 69.6806C111.074 69.6974 111.153 69.6892 111.224 69.6571C111.295 69.625 111.354 69.5708 111.392 69.5026ZM135.436 66.8839C136.337 64.763 136.895 62.5124 137.089 60.2164C137.374 58.9378 137.191 57.5995 136.573 56.4445C136.115 55.6279 135.434 54.958 134.611 54.5124C133.787 54.0669 132.854 53.864 131.92 53.9273C130.986 53.9906 130.089 54.3175 129.333 54.87C128.577 55.4226 127.993 56.1782 127.65 57.0491C127.053 58.9918 127.244 59.4506 126.439 60.8731C126.258 61.2055 125.993 61.4853 125.672 61.6849C125.12 62.0102 124.278 61.6197 123.818 61.269C123.026 60.6553 122.336 59.9195 121.775 59.0893C121.201 58.2686 120.676 57.4147 120.203 56.532C119.906 56.0096 119.661 55.4591 119.473 54.8885C119.089 53.2327 119.537 52.925 119.403 51.3759C119.375 51.1916 119.304 51.0162 119.197 50.8634C119.63 48.9048 119.671 46.88 119.317 44.9056C120.673 44.4998 122.064 44.2214 123.471 44.0739C124.887 43.8833 126.324 43.9389 127.721 44.2381C131.082 45.0714 133.989 47.1771 135.828 50.1115C138.293 54.2777 138.086 61.569 138.411 66.8839H135.436Z" fill="black"/>
<path d="M96.0954 83.5551C96.104 83.4872 96.0949 83.4183 96.0688 83.355C96.0427 83.2918 96.0005 83.2365 95.9465 83.1945C95.8521 83.1231 75.3838 70.474 75.1951 70.362C75.1407 70.3294 75.0785 70.3122 75.0152 70.3122C74.9518 70.3122 74.8896 70.3294 74.8352 70.362L63.8419 77.0487C63.8963 71.5244 64.1211 56.0985 62.9925 50.7982C62.7056 49.3563 62.1122 47.9929 61.2525 46.8002C60.3929 45.6075 59.2871 44.6134 58.0099 43.8852C54.9002 42.0768 50.6035 41.4054 45.2372 41.8903C42.1624 42.1052 39.2425 43.3205 36.9231 45.3507C34.7219 47.4223 31.1786 46.4394 30.7352 44.2704C30.2963 42.1289 31.56 38.8872 33.1083 38.1852C33.5173 37.9995 33.7513 38.3724 33.9638 38.7637C34.6029 39.9369 35.4477 41.0363 36.5664 40.2982C38.1561 39.2517 35.9572 37.0542 36.8088 36.1381C37.197 35.7941 37.705 35.6169 38.2229 35.6448C40.1625 35.6102 41.1492 36.4634 42.2441 36.445C43.3367 36.4926 44.2298 35.3655 43.5362 34.4908C43.2259 34.1046 42.8283 33.7977 42.3761 33.5954C41.6824 33.274 40.9479 33.0489 40.1932 32.9264C40.026 32.9095 39.7459 32.8803 39.7421 32.7507C39.7336 32.5159 40.0191 32.6379 41.493 32.7706C41.9499 32.8399 42.4125 32.8633 42.8741 32.8404C43.0589 32.8408 43.2413 32.7986 43.4071 32.7171C43.573 32.6357 43.7179 32.5172 43.8307 32.3707C43.9434 32.2243 44.021 32.0539 44.0573 31.8727C44.0937 31.6915 44.0879 31.5044 44.0403 31.3258C43.8796 30.9918 43.6188 30.7162 43.2941 30.5374C42.9694 30.3586 42.597 30.2855 42.2288 30.3284C41.4444 30.2583 40.6673 30.1228 39.9055 29.9233C40.8822 29.7246 41.4784 30.0698 42.5756 29.8304C42.8118 29.7461 43.0053 29.5723 43.1146 29.3465C43.2238 29.1207 43.2399 28.8611 43.1595 28.6235C42.8779 27.7903 41.5935 27.3192 39.2326 27.1811C36.8675 26.9954 34.4887 27.2639 32.2244 27.9721C21.8426 31.2714 18.0431 44.522 22.6336 51.3484C24.9446 54.7873 28.708 56.9901 33.5211 57.7228C33.4333 62.4662 33.3513 67.2097 33.2748 71.9533C32.8956 71.7812 32.5073 71.6298 32.1116 71.4998C32.173 68.4208 32.5398 65.6763 31.0375 63.8993C29.3656 61.9267 26.2144 62.2926 24.3953 64.0865C22.6467 65.809 22.0267 67.8707 21.2027 70.3451C20.9679 71.0533 20.7814 71.6118 20.6863 71.7906C19.3653 73.8455 17.4379 75.4388 15.1712 76.3497C13.8369 76.876 12.3899 77.1484 11.1876 78.0323C10.062 78.8599 9.24683 80.0415 8.87273 81.3876C8.68561 82.0382 8.69504 82.7297 8.89981 83.375C9.10459 84.0203 9.49558 84.5907 10.0236 85.0144C8.84942 85.4527 7.87621 86.3056 7.28756 87.4121C6.29011 89.4975 7.47707 91.4234 9.15738 91.6536C8.62748 92.2537 8.23172 92.9599 7.99651 93.7252C7.8538 94.1936 7.8388 94.6916 7.95305 95.1678C8.0673 95.6439 8.30666 96.0809 8.64638 96.4336C8.99243 96.7177 9.39902 96.9187 9.8349 97.0212C10.2708 97.1236 10.7243 97.1247 11.1607 97.0244C11.2374 97.0114 11.2137 96.416 8.87349 110.017C7.6999 109.805 6.49204 109.889 5.35865 110.26C3.28704 110.986 3.37681 112.997 4.6896 113.441C5.31646 113.61 5.37477 113.565 8.24357 113.623C7.69421 116.096 7.07656 116.743 7.59907 117.602C7.78364 117.901 8.07272 118.122 8.41052 118.221C8.74831 118.321 9.11087 118.291 9.42823 118.139C10.4379 117.538 12.4973 115.242 13.7602 114.284C14.0604 114.028 14.4028 113.827 14.7722 113.689C14.8835 113.646 15.0046 113.636 15.1215 113.659C15.2383 113.682 15.3463 113.738 15.4328 113.82C15.9699 114.52 16.3037 116.275 16.9674 117.549C17.0859 117.822 17.2981 118.043 17.5656 118.172C17.833 118.302 18.138 118.331 18.4252 118.255C18.7527 118.147 19.0483 117.96 19.2853 117.71C19.5224 117.459 19.6935 117.154 19.7832 116.821C20.0556 115.824 20.1538 114.244 20.5252 113.847C21.0114 113.58 21.5718 113.48 22.1203 113.563L26.8006 113.702C27.1541 113.714 27.503 113.62 27.8037 113.434C28.1043 113.248 28.3434 112.977 28.4908 112.656C28.6383 112.334 28.6876 111.976 28.6326 111.627C28.5776 111.278 28.4208 110.952 28.1817 110.692C27.9838 110.46 27.7384 110.273 27.4621 110.145C27.1859 110.016 26.8852 109.948 26.5804 109.945C25.8377 109.945 23.8183 109.896 23.8183 109.896C23.8006 109.169 23.7899 108.398 23.7845 107.486H53.6065V109.021C53.5696 109.243 53.5806 109.471 53.6388 109.689C53.6388 109.793 53.0649 109.366 74.526 124.336C74.5809 124.369 74.644 124.387 74.7082 124.387C74.7725 124.387 74.8356 124.369 74.8905 124.336C74.8905 124.336 95.5076 110.152 95.9688 109.823C96.1637 109.787 96.0954 111.15 96.0954 83.5551ZM8.20904 116.424C8.54059 115.39 8.81113 114.338 9.01927 113.272C9.01847 113.179 8.98114 113.09 8.91529 113.024C8.84944 112.958 8.76032 112.92 8.6671 112.919C7.99958 112.908 5.79139 112.872 5.36786 112.847C5.21994 112.855 5.07206 112.83 4.93496 112.774C4.79786 112.718 4.67499 112.632 4.57528 112.522C4.4812 112.353 4.44477 112.158 4.47148 111.966C4.49819 111.774 4.5866 111.596 4.72336 111.459C4.98431 111.19 5.31257 110.996 5.674 110.897C6.09726 110.759 6.53491 110.671 6.97835 110.633C7.70727 110.624 8.43601 110.663 9.15968 110.751C9.23871 110.75 9.31535 110.724 9.37756 110.675C9.43978 110.626 9.48404 110.558 9.50342 110.481C9.88705 108.232 12.9032 90.4328 13.817 88.3413C14.0646 87.7739 14.4234 87.2619 14.8723 86.8356C15.3211 86.4092 15.8509 86.0772 16.4303 85.8592C17.1534 85.5815 17.9329 85.4828 18.7024 85.5717C19.4719 85.6606 20.2084 85.9343 20.8491 86.3696C21.4899 86.8048 22.0158 87.3887 22.382 88.0712C22.7481 88.7538 22.9437 89.5148 22.952 90.2894L23.1155 110.266C23.1165 110.36 23.1548 110.45 23.2222 110.516C23.2895 110.582 23.3802 110.619 23.4745 110.618C23.9702 110.592 25.8531 110.663 26.5774 110.652C26.9019 110.653 27.216 110.767 27.4665 110.973C27.7171 111.179 27.8887 111.466 27.9523 111.784C27.9743 112.082 27.8769 112.377 27.6817 112.603C27.4864 112.83 27.2092 112.969 26.9111 112.991C26.7707 112.998 22.6789 112.878 22.3022 112.858C21.798 112.825 21.2918 112.857 20.796 112.954C20.4485 113.027 20.1343 113.211 19.9014 113.479C19.7761 113.667 19.6822 113.875 19.6236 114.093C19.1311 115.921 19.3574 116.305 18.8679 117.093C18.7777 117.234 18.656 117.353 18.5124 117.439C18.3687 117.525 18.207 117.577 18.04 117.59C17.9673 117.587 17.8968 117.564 17.8354 117.525C17.7739 117.486 17.7236 117.432 17.6894 117.368C17.2994 116.679 17.0002 115.943 16.7993 115.178C16.6427 114.447 16.3032 113.768 15.8126 113.204L15.8042 113.198C14.2781 112.004 12.0784 115.013 9.53794 117.174C9.34434 117.402 9.0685 117.544 8.77068 117.569C8.64443 117.554 8.5238 117.509 8.41992 117.435C8.31604 117.362 8.23225 117.264 8.17629 117.15C8.12033 117.036 8.094 116.91 8.09972 116.783C8.10544 116.656 8.14304 116.532 8.20904 116.424ZM8.89191 93.3216C9.2499 92.6491 9.70462 92.0329 10.2415 91.4924C10.2946 91.4361 10.3279 91.3641 10.3364 91.2872C10.345 91.2103 10.3283 91.1327 10.2889 91.0661C10.2495 90.9995 10.1895 90.9476 10.118 90.918C10.0465 90.8885 9.96732 90.883 9.89242 90.9024C9.64995 90.957 9.39897 90.9622 9.15446 90.9176C8.90995 90.8731 8.67691 90.7798 8.46925 90.6432C8.26159 90.5066 8.08357 90.3297 7.94579 90.1228C7.80802 89.916 7.71332 89.6835 7.66735 89.4392C7.58901 88.8517 7.67688 88.2539 7.92098 87.7138C8.16509 87.1736 8.55567 86.7127 9.04843 86.3832C9.62361 85.954 10.2654 85.6222 10.9482 85.4011C11.0206 85.3783 11.0838 85.333 11.1286 85.2718C11.1735 85.2106 11.1977 85.1367 11.1977 85.0608C11.1977 84.985 11.1735 84.911 11.1286 84.8498C11.0838 84.7886 11.0206 84.7434 10.9482 84.7206C10.4262 84.4985 9.99595 84.1044 9.72917 83.6038C9.46239 83.1032 9.37513 82.5263 9.48193 81.9691C9.68957 80.694 10.3755 79.5459 11.4001 78.7589C12.495 77.885 13.8139 77.6003 15.1221 77.1231C17.4459 76.266 19.4596 74.7323 20.9034 72.7198C21.27 72.2733 21.5321 71.7506 21.6707 71.1898C22.6735 68.1315 23.6825 64.5553 26.6625 63.5111C27.1717 63.3211 27.7159 63.2439 28.2578 63.2845C28.7997 63.3252 29.3263 63.4828 29.8014 63.7466C30.2699 64.0818 30.6574 64.5177 30.9354 65.0222C31.2134 65.5267 31.3749 66.0871 31.4081 66.6622C31.5068 68.2051 31.5068 69.7528 31.4081 71.2957C29.9734 70.927 28.4836 70.823 27.0116 70.9888C17.9978 71.9863 14.3625 81.1581 12.9032 88.6666C12.8809 88.7433 11.6755 94.4978 11.3257 96.2763C10.7515 96.4485 10.1362 96.4237 9.57784 96.2057C8.47912 95.7615 8.3625 94.3444 8.88884 93.3216H8.89191ZM39.1221 30.1588C39.2257 30.5095 39.6592 30.6146 39.9508 30.6836C41.8781 31.144 43.0099 30.9138 43.3405 31.467C43.3701 31.5133 43.3894 31.5654 43.3971 31.6199C43.4047 31.6743 43.4006 31.7297 43.3851 31.7824C43.3216 31.8983 43.2268 31.994 43.1114 32.0584C42.996 32.1229 42.8649 32.1535 42.7329 32.1468C41.7078 32.1154 40.0774 31.9166 40.0091 31.9059C39.8576 31.8875 39.7039 31.9097 39.5638 31.9703C39.4237 32.0309 39.3022 32.1276 39.2118 32.2505C39.1214 32.3735 39.0653 32.5183 39.0493 32.6701C39.0332 32.8219 39.0579 32.9752 39.1206 33.1143C39.2014 33.2502 39.3143 33.3643 39.4494 33.4464C39.5845 33.5285 39.7377 33.5763 39.8955 33.5854C40.8682 33.7029 41.8016 34.0395 42.6255 34.5698C42.7389 34.6397 42.8375 34.7314 42.9155 34.8395C42.9934 34.9476 43.0492 35.07 43.0797 35.1998C43.0631 35.318 43.0055 35.4266 42.917 35.5067C42.2434 36.0975 41.1093 35.4438 40.3029 35.2189C39.0193 34.8614 37.1955 34.7018 36.2871 35.6747C36.1481 35.8216 36.0412 35.9958 35.9731 36.1863C35.9051 36.3768 35.8775 36.5794 35.8919 36.7811C35.9638 37.3541 36.1058 37.9161 36.3147 38.4545C36.4252 38.8074 36.5779 39.2893 36.3546 39.5686C36.2944 39.6488 36.2158 39.7135 36.1255 39.7573C36.0352 39.801 35.9357 39.8225 35.8353 39.8199C35.735 39.8174 35.6368 39.7909 35.5488 39.7426C35.4608 39.6943 35.3856 39.6257 35.3295 39.5425C34.3904 38.4016 34.5216 37.8545 33.6822 37.4954C33.4634 37.4382 33.2342 37.4337 33.0133 37.4822C32.7925 37.5308 32.5863 37.631 32.4116 37.7747C31.7123 38.3431 31.1382 39.0502 30.7254 39.8513C30.3127 40.6524 30.0701 41.5303 30.0132 42.4297H21.5633C21.9284 39.5524 22.9855 36.8065 24.6438 34.4271C28.1119 29.4483 34.1027 27.0614 40.6712 28.0496C41.0488 28.1044 41.4197 28.1975 41.7784 28.3274C42.0715 28.4164 42.6093 28.7333 42.4874 29.0179C42.4452 29.113 42.3247 29.1714 42.1467 29.1913C41.1492 29.2834 40.6789 29.031 39.6738 29.268C39.4826 29.3135 39.3171 29.4326 39.2132 29.5994C39.1094 29.7662 39.0755 29.9672 39.1191 30.1588H39.1221ZM21.4827 43.1402H29.9456C29.6173 46.9911 34.5853 48.511 37.3881 45.8862C39.9515 43.4831 43.6168 42.3568 48.5825 42.455C54.6178 42.5686 58.4802 44.1108 60.739 47.3087C61.5042 48.4126 62.0365 49.6607 62.3035 50.977C62.6943 53.0917 62.9142 55.2345 62.961 57.3844C63.1605 63.066 63.2426 66.9062 63.1268 77.4868C57.1344 81.1313 53.7945 83.1461 53.717 83.2213C53.5467 83.3556 53.605 83.0986 53.605 93.7413L44.4239 93.7021C44.3365 93.472 44.1569 93.0592 44.0817 92.862C44.2582 92.4277 43.2377 87.518 43.1219 87.0001C45.9232 84.4405 48.124 81.2933 49.5669 77.7837C51.9821 71.9982 52.8983 65.6967 52.2308 59.463C52.1526 58.8822 52.0143 58.3111 51.8181 57.7589C51.6644 57.1805 51.3798 56.6453 50.9863 56.1944C50.8167 55.9831 50.6009 55.8134 50.3556 55.6982C50.1103 55.583 49.8419 55.5255 49.571 55.5299C49.3 55.5344 49.0337 55.6007 48.7923 55.7238C48.5509 55.847 48.3408 56.0237 48.1782 56.2405C47.6233 55.6724 46.8813 55.3249 46.0897 55.2625C45.2981 55.2002 44.5107 55.4271 43.8738 55.9013C43.7671 54.6469 43.5262 52.4801 43.3137 51.3445C43.3037 50.9925 43.1639 50.6566 42.9212 50.4013C42.6786 50.1461 42.3502 49.9895 41.9991 49.9617C41.648 49.9339 41.299 50.0369 41.0192 50.2508C40.7394 50.4647 40.5485 50.7744 40.4833 51.1205C40.4341 51.9132 40.449 52.7087 40.5278 53.499C40.9643 65.3103 40.6413 62.8965 40.6444 66.4343C40.6444 70.0405 40.0697 72.8402 37.2561 74.7975C36.3023 73.7976 35.1957 72.9557 33.9776 72.3031C34.0006 70.7863 34.2331 57.5279 34.2339 57.4259C34.2341 57.3482 34.2088 57.2726 34.1618 57.2107C34.1148 57.1489 34.0487 57.1042 33.9738 57.0837H33.96C31.1487 56.7388 28.4684 55.6962 26.163 54.0507C22.6935 51.5601 21.0354 47.6893 21.4827 43.1402ZM36.7751 99.5502C36.9492 99.1229 36.2702 98.9203 36.0991 99.3408C35.1033 101.789 34.1867 104.268 33.3508 106.776C33.1912 106.788 27.2955 106.776 23.7753 106.776C23.7707 105.778 23.75 102.526 23.7438 101.658C24.4731 99.7246 25.3954 97.8697 26.4968 96.1213C27.7383 93.9023 29.2958 91.8755 31.1203 90.1044C35.7032 85.7709 41.1047 87.2402 43.0421 92.1139C44.8835 96.7436 45.7214 100.266 44.5712 104.57C44.4117 105.166 44.0764 106.405 43.9835 106.776H34.0996C34.9147 104.339 35.8075 101.93 36.7766 99.5502H36.7751ZM51.3216 60.7052C51.2475 60.8618 51.1316 60.9948 50.9865 61.0896C50.8415 61.1844 50.6731 61.2372 50.4999 61.2423C49.484 61.1809 49.2516 60.1389 49.0344 59.6103C49.0697 58.6863 48.9398 57.7633 48.6508 56.885C48.7044 56.6931 48.8207 56.5246 48.9812 56.4066C49.1417 56.2885 49.3371 56.2276 49.5362 56.2336C49.7759 56.2542 50.0072 56.3319 50.2108 56.4601C50.4143 56.5884 50.5842 56.7635 50.7063 56.9709C50.9296 57.3503 51.0992 57.7588 51.2104 58.1847C51.3571 58.6083 51.4622 59.0451 51.5242 59.4891C51.5729 59.9054 51.5026 60.3271 51.3216 60.7052ZM41.3756 65.8412C41.5349 61.9924 41.4955 58.1379 41.2574 54.2931C41.1999 52.9596 41.1546 51.9062 41.1623 51.4005C41.173 50.654 42.3477 50.3341 42.5434 51.1389C42.7146 51.8907 42.8338 52.6534 42.9001 53.4215C42.9638 54.0492 43.1932 55.9619 43.2224 56.644C43.2249 56.7135 43.2476 56.7807 43.2877 56.8375C43.3278 56.8943 43.3836 56.9381 43.4482 56.9637C43.5129 56.9893 43.5835 56.9954 43.6516 56.9814C43.7197 56.9675 43.7823 56.9339 43.8316 56.885C44.0899 56.581 44.4142 56.34 44.7798 56.1806C45.1455 56.0211 45.5427 55.9473 45.9412 55.9649C46.3397 55.9824 46.7289 56.0908 47.0791 56.2818C47.4293 56.4728 47.7312 56.7413 47.9618 57.0668C48.123 57.5322 48.2313 58.0143 48.2848 58.5039C48.3952 59.1453 48.3545 59.8037 48.1659 60.4267C48.096 60.661 47.9383 60.8594 47.7258 60.9805C47.5133 61.1015 47.2622 61.1359 47.025 61.0765C45.5672 60.6062 46.2255 58.9113 45.6071 57.6016C45.4099 57.1834 44.7953 57.5325 44.9871 57.9446C45.02 58.0145 45.049 58.0862 45.0738 58.1594C44.716 57.9168 44.2788 57.8207 43.8522 57.8909C43.4257 57.9612 43.0423 58.1924 42.7812 58.5369C42.0454 59.5811 42.0047 60.8057 41.8758 62.163C41.8321 62.6233 42.5395 62.6341 42.5833 62.1814C42.5827 61.1552 42.7902 60.1396 43.1932 59.196C43.2728 59.0235 43.3975 58.8756 43.5541 58.7681C43.7106 58.6605 43.8933 58.5972 44.0829 58.5848C44.2724 58.5724 44.4618 58.6113 44.6311 58.6976C44.8004 58.7838 44.9432 58.9141 45.0446 59.0747C45.6408 60.1896 44.8828 61.7034 45.5917 63.1412C45.7981 63.5602 46.4088 63.198 46.2124 62.8021C46.012 62.3075 45.9258 61.7741 45.96 61.2415C46.1443 61.4537 46.3788 61.6164 46.6422 61.7147C46.9055 61.8131 47.1893 61.8439 47.4676 61.8043C47.7459 61.7648 48.0099 61.6562 48.2355 61.4885C48.461 61.3208 48.641 61.0992 48.759 60.844C48.9463 61.1636 49.2099 61.4318 49.5261 61.6247C49.8423 61.8176 50.2014 61.9293 50.5713 61.9497C50.9991 61.9229 51.3997 61.7302 51.6876 61.4126C52.2247 71.1569 48.8096 80.8451 42.9331 86.2213C41.8099 81.6177 40.1541 78.1451 37.7311 75.317C41.2452 72.8456 41.3142 69.1259 41.3756 65.8412ZM30.327 89.8351C27.7797 92.2996 25.2239 96.5019 23.7285 99.729C23.7231 99.0868 23.6518 91.4656 23.661 90.8786C23.6959 89.9952 23.5599 89.1133 23.2605 88.2814C22.9128 87.4108 22.3473 86.6441 21.6182 86.0548C20.8891 85.4654 20.0209 85.0732 19.0968 84.9157C18.1726 84.7582 17.2235 84.8407 16.3404 85.1553C15.4573 85.4699 14.6697 86.0061 14.0533 86.7124C15.3392 81.33 18.6914 72.6553 26.9917 71.7008C28.9897 71.4517 31.018 71.7432 32.8651 72.5448C39.3707 75.3914 42.0224 83.8651 43.0981 90.6722C39.9999 85.6658 34.6398 85.662 30.327 89.8351ZM44.7515 94.4886L44.7446 94.4709H53.6058V106.775H44.7308C46.3521 102.445 46.3551 98.9878 44.7492 94.4886H44.7515ZM54.6562 83.4691C66.2541 76.4149 74.9495 71.1369 75.0224 71.0886C76.1227 71.7691 93.3601 82.4326 95.048 83.4807C93.192 84.5947 75.9547 94.9451 74.8467 95.6303C74.8467 95.6303 56.1999 84.386 54.6539 83.4691H54.6562ZM54.317 84.1037L74.6733 96.3515C74.7276 96.3839 74.7897 96.401 74.8529 96.401C74.9161 96.401 74.9781 96.3839 75.0324 96.3515C75.1721 96.2687 93.413 85.3129 95.3895 84.109V109.364C94.1235 110.232 75.8925 122.751 74.7017 123.591C74.7017 123.591 55.1027 109.897 54.317 109.361V84.1037Z" fill="black"/>
<path d="M117.403 103.133C114.52 101.769 111.37 101.06 108.181 101.057C104.991 101.055 101.841 101.758 98.9553 103.117C98.8817 103.149 98.8212 103.205 98.7835 103.276C98.7458 103.347 98.7333 103.428 98.7479 103.507C98.7625 103.586 98.8033 103.658 98.8639 103.711C98.9244 103.763 99.001 103.794 99.0811 103.798H117.232C117.309 103.796 117.385 103.769 117.446 103.721C117.507 103.673 117.55 103.606 117.57 103.53C117.589 103.455 117.583 103.375 117.553 103.304C117.523 103.232 117.47 103.172 117.403 103.133ZM115.465 103.089H100.767C105.508 101.331 110.723 101.331 115.465 103.089Z" fill="black"/>
<path d="M146.146 90.607C142.74 94.0198 141.982 95.6095 139.854 97.7295C138.059 99.5445 135.886 100.942 133.49 101.823C133.409 101.839 133.336 101.882 133.282 101.945C133.228 102.008 133.198 102.087 133.195 102.17C133.193 102.253 133.218 102.334 133.268 102.4C133.318 102.467 133.389 102.514 133.469 102.535C136.096 103.561 139.976 102.643 142.806 98.4684C144.354 96.1254 145.661 93.6319 146.708 91.0259C146.747 90.9511 146.758 90.8648 146.739 90.7826C146.72 90.7004 146.673 90.6276 146.605 90.5772C146.537 90.5269 146.454 90.5022 146.37 90.5076C146.286 90.5131 146.206 90.5483 146.146 90.607ZM145.259 92.5796C144.49 94.269 143.608 95.9051 142.621 97.4771C141.142 99.8441 139.471 101.26 137.36 101.932C136.486 102.21 135.559 102.276 134.654 102.124C139.958 99.8118 141.867 96.3177 145.259 92.5796Z" fill="black"/>
<path d="M87.1758 31.4701C90.5218 34.1555 90.3116 34.0312 90.4919 34.0312C90.5636 34.0372 90.6354 34.0206 90.6971 33.9835C90.7588 33.9465 90.8073 33.891 90.8357 33.8249C90.8641 33.7588 90.8711 33.6855 90.8555 33.6152C90.8399 33.545 90.8026 33.4814 90.7489 33.4335L87.6607 30.9552C87.3062 30.6698 86.8152 31.1808 87.1758 31.4701Z" fill="black"/>
<path d="M102.695 28.7209C102.765 29.1752 103.452 29.0071 103.385 28.5537L102.747 24.4388C102.678 23.9885 101.99 24.1503 102.057 24.6053L102.695 28.7209Z" fill="black"/>
<path d="M115.281 30.3614L117.415 26.0118C117.616 25.6028 117.001 25.2514 116.797 25.6665L114.661 30.0161C114.46 30.4258 115.076 30.7765 115.281 30.3614Z" fill="black"/>
<path d="M129.164 45.8448C127.792 46.1992 126.444 46.6888 125.112 47.1576C125.034 47.1843 124.968 47.2366 124.924 47.3058C124.881 47.375 124.862 47.457 124.871 47.5384C124.879 47.6198 124.916 47.6958 124.974 47.7539C125.031 47.8119 125.107 47.8487 125.188 47.8581C125.346 47.8581 126.473 47.3785 129.349 46.5276C129.437 46.4999 129.51 46.4394 129.554 46.3588C129.598 46.2781 129.608 46.1837 129.584 46.0952C129.559 46.0068 129.502 45.9313 129.423 45.8846C129.344 45.8379 129.25 45.8236 129.16 45.8448H129.164Z" fill="black"/>
<path d="M79.1283 43.3894C83.471 45.2117 83.1273 45.0774 83.2209 45.0774C83.2987 45.0775 83.3743 45.052 83.4361 45.0048C83.498 44.9577 83.5426 44.8915 83.5631 44.8166C83.5862 44.7281 83.5745 44.6342 83.5306 44.554C83.4867 44.4739 83.4137 44.4135 83.3268 44.3853L79.3278 42.7073C79.2389 42.6848 79.1447 42.6976 79.065 42.7431C78.9853 42.7885 78.9264 42.8631 78.9006 42.9511C78.8747 43.0392 78.884 43.1338 78.9265 43.2151C78.969 43.2964 79.0413 43.3581 79.1283 43.3871V43.3894Z" fill="black"/>
<path d="M148.97 62.578H144.61C144.519 62.5822 144.433 62.6214 144.37 62.6873C144.307 62.7532 144.272 62.8409 144.272 62.9321C144.272 63.0232 144.307 63.1109 144.37 63.1768C144.433 63.2427 144.519 63.2819 144.61 63.2861H148.966C149.014 63.2884 149.062 63.2809 149.107 63.2641C149.152 63.2473 149.193 63.2216 149.228 63.1885C149.262 63.1554 149.29 63.1156 149.309 63.0715C149.328 63.0274 149.337 62.98 149.337 62.9321C149.337 62.8841 149.328 62.8367 149.309 62.7926C149.29 62.7485 149.262 62.7087 149.228 62.6756C149.193 62.6425 149.152 62.6168 149.107 62.6C149.062 62.5832 149.014 62.5757 148.966 62.578H148.97Z" fill="black"/>
<path d="M140.255 52.5928H143.431C143.522 52.5885 143.608 52.5494 143.671 52.4834C143.734 52.4175 143.769 52.3298 143.769 52.2387C143.769 52.1475 143.734 52.0599 143.671 51.9939C143.608 51.928 143.522 51.8888 143.431 51.8846H140.255C140.164 51.8888 140.078 51.928 140.015 51.9939C139.952 52.0599 139.917 52.1475 139.917 52.2387C139.917 52.3298 139.952 52.4175 140.015 52.4834C140.078 52.5494 140.164 52.5885 140.255 52.5928Z" fill="black"/>
<path d="M149.367 47.2688H143.068C142.977 47.273 142.891 47.3122 142.828 47.3781C142.765 47.4441 142.73 47.5317 142.73 47.6229C142.73 47.7141 142.765 47.8017 142.828 47.8676C142.891 47.9336 142.977 47.9727 143.068 47.977H149.366C149.457 47.9727 149.543 47.9336 149.606 47.8676C149.669 47.8017 149.704 47.7141 149.704 47.6229C149.704 47.5317 149.669 47.4441 149.606 47.3781C149.543 47.3122 149.457 47.273 149.366 47.2688H149.367Z" fill="black"/>
<path d="M87.7741 85.3965C88.2603 85.4283 88.7467 85.3354 89.187 85.1268C89.6274 84.9182 90.0073 84.6006 90.2907 84.2042C91.0441 82.9605 90.0244 81.3223 87.817 81.3001C86.7743 81.3001 62.2878 81.2824 61.9249 81.3116C61.4298 81.3161 60.9459 81.46 60.5288 81.7267C60.1116 81.9935 59.7781 82.3724 59.5663 82.82C59.1144 84.0722 60.3835 85.5692 62.7305 85.3965C62.9799 85.3965 87.3751 85.3904 87.7741 85.3965ZM88.1477 84.6715C87.8408 84.6991 63.7188 84.6715 62.2548 84.6883C61.3733 84.7037 60.2891 84.284 60.1832 83.3978C60.1832 82.3766 61.364 82.0083 62.627 82.0083H87.8147C88.5774 82.0167 89.7452 82.3566 89.8334 83.2605C89.9224 84.073 88.9549 84.5993 88.1508 84.6692L88.1477 84.6715Z" fill="black"/>
<path d="M40.0047 89.9538L38.4886 89.4213C38.0551 89.2679 37.8548 89.9484 38.2876 90.1003C38.8166 90.3299 39.3637 90.5152 39.9234 90.6543C40.005 90.6457 40.0813 90.6095 40.1396 90.5518C40.198 90.494 40.2349 90.4181 40.2444 90.3366C40.2539 90.255 40.2353 90.1727 40.1917 90.1031C40.1482 90.0336 40.0822 89.9809 40.0047 89.9538Z" fill="black"/>
<path d="M119.002 63.0568C119.002 63.0568 122.677 65.1621 122.839 65.2511C122.89 65.28 122.948 65.295 123.008 65.2949C123.085 65.2948 123.16 65.2696 123.222 65.223C123.283 65.1764 123.328 65.1109 123.349 65.0365C123.37 64.9622 123.366 64.883 123.338 64.8109C123.31 64.7389 123.26 64.6779 123.194 64.6373C121.917 63.9028 120.638 63.1718 119.358 62.4445C119.317 62.422 119.272 62.4079 119.225 62.4029C119.179 62.3979 119.132 62.4022 119.087 62.4155C119.043 62.4287 119.001 62.4507 118.965 62.4802C118.929 62.5097 118.899 62.5461 118.877 62.5872C118.834 62.6669 118.824 62.7596 118.847 62.8467C118.871 62.9337 118.926 63.0088 119.002 63.0568Z" fill="black"/>
<path d="M95.7289 111.932C95.6393 111.936 95.5543 111.973 95.491 112.036C95.4277 112.1 95.3907 112.185 95.3875 112.274V118.419C95.3917 118.51 95.4309 118.596 95.4968 118.659C95.5627 118.722 95.6504 118.757 95.7415 118.757C95.8327 118.757 95.9204 118.722 95.9863 118.659C96.0522 118.596 96.0914 118.51 96.0956 118.419V112.277C96.0949 112.23 96.0847 112.184 96.0657 112.141C96.0467 112.098 96.0193 112.06 95.9852 112.027C95.951 111.995 95.9107 111.97 95.8667 111.954C95.8226 111.937 95.7758 111.93 95.7289 111.932Z" fill="black"/>
<path d="M66.7519 82.2944C66.6616 82.2976 66.576 82.3352 66.5125 82.3993C66.4489 82.4634 66.4121 82.5494 66.4097 82.6396V83.8672C66.4097 83.9613 66.447 84.0514 66.5135 84.1179C66.58 84.1844 66.6701 84.2217 66.7641 84.2217C66.8582 84.2217 66.9483 84.1844 67.0148 84.1179C67.0813 84.0514 67.1186 83.9613 67.1186 83.8672V82.6396C67.1181 82.5926 67.108 82.5462 67.0891 82.5031C67.0702 82.4601 67.0428 82.4213 67.0086 82.3891C66.9744 82.3568 66.934 82.3318 66.8899 82.3156C66.8458 82.2993 66.7988 82.2921 66.7519 82.2944Z" fill="black"/>
<path d="M82.4626 82.2944C82.3724 82.2978 82.2869 82.3354 82.2234 82.3995C82.1598 82.4636 82.123 82.5494 82.1204 82.6396V83.9601C82.1204 84.0541 82.1577 84.1443 82.2242 84.2108C82.2907 84.2772 82.3808 84.3146 82.4748 84.3146C82.5688 84.3146 82.659 84.2772 82.7255 84.2108C82.792 84.1443 82.8293 84.0541 82.8293 83.9601V82.6343C82.8277 82.5878 82.817 82.5421 82.7977 82.4999C82.7783 82.4576 82.7508 82.4195 82.7167 82.3879C82.6826 82.3563 82.6426 82.3318 82.599 82.3157C82.5554 82.2997 82.509 82.2924 82.4626 82.2944Z" fill="black"/>
<path d="M10.6782 111.731C10.7986 111.731 10.7219 111.754 12.2349 110.921C12.3114 110.872 12.366 110.795 12.3874 110.707C12.4089 110.618 12.3956 110.525 12.3503 110.446C12.3049 110.368 12.2311 110.309 12.1439 110.283C12.0568 110.257 11.963 110.266 11.882 110.307L10.4956 111.075C10.4313 111.116 10.3819 111.176 10.3546 111.247C10.3273 111.319 10.3236 111.397 10.3441 111.47C10.3645 111.544 10.408 111.609 10.4682 111.655C10.5283 111.702 10.6019 111.729 10.6782 111.731Z" fill="black"/>
<path d="M54.2656 112.278V118.416C54.2656 118.51 54.303 118.6 54.3695 118.666C54.4359 118.733 54.5261 118.77 54.6201 118.77C54.7141 118.77 54.8043 118.733 54.8708 118.666C54.9373 118.6 54.9746 118.51 54.9746 118.416V112.271C54.9737 112.177 54.9355 112.087 54.8683 112.021C54.8012 111.955 54.7107 111.919 54.6167 111.92C54.5227 111.921 54.4329 111.959 54.367 112.026C54.3012 112.093 54.2647 112.184 54.2656 112.278Z" fill="black"/>
<path d="M74.695 125.398C74.6054 125.401 74.5203 125.438 74.4569 125.501C74.3934 125.565 74.3562 125.65 74.3528 125.739V128.939C74.3528 129.033 74.3901 129.123 74.4566 129.189C74.5231 129.256 74.6132 129.293 74.7073 129.293C74.8013 129.293 74.8914 129.256 74.9579 129.189C75.0244 129.123 75.0617 129.033 75.0617 128.939V125.739C75.0607 125.693 75.0503 125.646 75.0311 125.604C75.012 125.561 74.9845 125.523 74.9504 125.491C74.9162 125.459 74.876 125.435 74.8321 125.419C74.7883 125.403 74.7416 125.395 74.695 125.398Z" fill="black"/>
<path d="M15.9888 111.997C16.3072 112.074 16.2904 111.786 17.2165 111.081C17.5778 110.805 17.2088 110.203 16.8397 110.481C16.4697 110.76 16.1226 111.068 15.8016 111.402C15.7587 111.449 15.7288 111.506 15.715 111.567C15.7012 111.629 15.7039 111.694 15.7229 111.754C15.7419 111.814 15.7764 111.869 15.8231 111.911C15.8698 111.954 15.927 111.984 15.9888 111.997Z" fill="black"/>
<path d="M13.5106 98.403C13.766 97.661 13.9532 96.8972 14.07 96.1212C14.1375 95.6708 13.4516 95.4989 13.3794 95.9554C13.2636 96.7198 13.0792 97.4722 12.8285 98.2035C12.6805 98.6416 13.3618 98.8342 13.5106 98.403Z" fill="black"/>
<path d="M74.8843 115.989C74.9766 115.988 75.0652 115.952 75.1313 115.888C75.1974 115.823 75.2359 115.736 75.2387 115.643V102.571C75.2336 102.478 75.1926 102.39 75.1242 102.327C75.0558 102.263 74.9655 102.228 74.872 102.229C74.7823 102.233 74.6973 102.27 74.6338 102.333C74.5704 102.397 74.5332 102.482 74.5298 102.571V115.647C74.533 115.739 74.5717 115.826 74.6379 115.89C74.7041 115.953 74.7924 115.989 74.8843 115.989Z" fill="black"/>
<path d="M36.2308 34.0142C36.0393 33.875 35.8773 33.6993 35.7542 33.4971C35.6311 33.2949 35.5494 33.0703 35.5137 32.8363C35.478 32.6023 35.4891 32.3636 35.5463 32.1339C35.6036 31.9042 35.7058 31.6882 35.8472 31.4983C36.1218 31.1254 35.5119 30.7571 35.2456 31.1247C35.0545 31.3935 34.9187 31.6977 34.846 32.0195C34.7734 32.3413 34.7654 32.6743 34.8225 32.9992C34.8796 33.3242 35.0007 33.6345 35.1787 33.9123C35.3567 34.19 35.5881 34.4296 35.8594 34.6172C36.2377 34.8796 36.6052 34.2796 36.2308 34.0142Z" fill="black"/>
<path d="M22.551 39.372L22.2203 41.3738C22.1436 41.8234 22.8341 41.9983 22.9108 41.5426L23.2415 39.54C23.3129 39.0927 22.6269 38.9154 22.551 39.372Z" fill="black"/>
<path d="M124.751 72.0876C125.617 72.3422 126.539 72.3297 127.397 72.0515C127.483 72.0221 127.555 71.9608 127.597 71.88C127.639 71.7993 127.649 71.7055 127.623 71.618C127.598 71.5305 127.54 71.456 127.462 71.41C127.383 71.364 127.29 71.35 127.201 71.3709C126.466 71.5962 125.682 71.6079 124.94 71.4047C124.851 71.3835 124.757 71.3978 124.678 71.4445C124.599 71.4912 124.541 71.5667 124.517 71.6552C124.492 71.7436 124.503 71.8381 124.547 71.9187C124.591 71.9993 124.664 72.0599 124.751 72.0876Z" fill="black"/>
<path d="M114.646 57.2962C115.958 57.5095 115.95 57.511 116.001 57.511C116.406 57.511 116.538 56.888 116.106 56.8205L114.814 56.611C114.364 56.5366 114.19 57.2226 114.646 57.2962Z" fill="black"/>
<path d="M116.24 59.993C115.761 59.9721 115.287 59.8925 114.827 59.7559C114.737 59.7333 114.642 59.7468 114.562 59.7935C114.482 59.8403 114.423 59.9166 114.399 60.006C114.374 60.0955 114.386 60.191 114.431 60.272C114.476 60.3531 114.551 60.4132 114.64 60.4396C115.157 60.5964 115.692 60.6843 116.232 60.7012C116.701 60.7165 116.689 60.0122 116.24 59.993Z" fill="black"/>
<path d="M108.967 80.3126C108.416 80.8946 107.934 81.5383 107.53 82.2308C107.501 82.2848 107.486 82.3456 107.487 82.4072C107.488 82.4688 107.505 82.5291 107.536 82.582C107.568 82.635 107.612 82.6789 107.666 82.7093C107.72 82.7397 107.78 82.7557 107.842 82.7556C108.259 82.7556 108.157 82.2315 109.474 80.8113C109.784 80.4722 109.28 79.9742 108.967 80.3126Z" fill="black"/>
</svg>
